<svg id="Layer_1" height="512" viewBox="0 0 64 64" width="512" xmlns="http://www.w3.org/2000/svg" data-name="Layer 1"><path d="m33 31h-2v2h-2v2h2v3h2v-3h2v-2h-2z"/><path d="m31 59h2v-4h2v-2h-2v-2h-2v2h-2v2h2z"/><path d="m2 59.26a1 1 0 0 0 1 .74h24.81a5.39 5.39 0 0 0 8.38 0h24.81a1 1 0 0 0 .5-1.87l-5.5-3.13 5.48-3.13a1 1 0 0 0 -.48-1.87h-23v-1a1 1 0 0 0 -1-1h-10a1 1 0 0 0 -1 1v1h-23a1 1 0 0 0 -.5 1.87l5.5 3.13-5.5 3.13a1 1 0 0 0 -.5 1.13zm55.23-7.26-3.73 2.13a1 1 0 0 0 0 1.74l3.73 2.13h-19.82a7.79 7.79 0 0 0 .59-3v-3zm-29.23-2h8v5c0 2.76-1.79 5-4 5s-4-2.24-4-5zm-17.5 5.87a1 1 0 0 0 0-1.74l-3.73-2.13h19.23v3a7.79 7.79 0 0 0 .59 3h-19.82z"/><path d="m10.76 32a1 1 0 0 0 -.68.59l-5 12a1 1 0 0 0 .09.93 1 1 0 0 0 .83.48h52a1 1 0 0 0 .83-.45 1 1 0 0 0 .09-.93l-5-12a1 1 0 0 0 -.68-.59l-15.38-3.85-.73-3.64a10.05 10.05 0 0 0 4.62-6.38 2.5 2.5 0 0 0 1.25-2.16v-1a2.49 2.49 0 0 0 -1-2v-1a10 10 0 0 0 -20 0v1a2.49 2.49 0 0 0 -1 2v1a2.5 2.5 0 0 0 1.25 2.16 10.05 10.05 0 0 0 4.62 6.38l-.73 3.64zm45.74 12h-49l3.73-9c3 4.12 11.21 7 20.77 7s17.76-2.84 20.77-7zm-5.18-10.39c-2.32 3.7-10.23 6.39-19.32 6.39s-17-2.69-19.32-6.39l14.56-3.61a1 1 0 0 0 .76-.8v-.2h8v.2a1 1 0 0 0 .74.77zm-19.32-29.61a8 8 0 0 1 7.74 6h-15.48a8 8 0 0 1 7.74-6zm-7.88 13.29a1 1 0 0 0 -.74-.81.51.51 0 0 1 -.38-.48v-1a.51.51 0 0 1 .34-.47 1 1 0 0 0 .66-.94v-1.59h16v1.59a1 1 0 0 0 .66.94.51.51 0 0 1 .34.47v1a.51.51 0 0 1 -.38.48 1 1 0 0 0 -.74.81 8 8 0 0 1 -15.76 0zm7.88 8.71a9.69 9.69 0 0 0 3.27-.57l.31 1.57h-7.16l.31-1.57a9.69 9.69 0 0 0 3.27.57z"/></svg>