<?xml version="1.0"?>
<svg xmlns="http://www.w3.org/2000/svg" id="Layer_1" data-name="Layer 1" viewBox="0 0 64 64" width="512" height="512"><path d="M11,54.52v5A2.52,2.52,0,0,0,13.52,62h11A2.52,2.52,0,0,0,27,59.48v-5A2.52,2.52,0,0,0,24.48,52h0c.14-.66.24-1.37.32-2H39.22c.08.69.19,1.38.32,2h0A2.52,2.52,0,0,0,37,54.52v5A2.52,2.52,0,0,0,39.52,62h11A2.52,2.52,0,0,0,53,59.48v-5A2.52,2.52,0,0,0,50.48,52h-.17L53,42.26a1,1,0,0,0,0-.63L50,34.12l0-23S50,11,50,11h0a1,1,0,0,0-1-1h0a3,3,0,0,1,0-6,1,1,0,0,0,1-1,1,1,0,0,0-1-1H19V4H45a4.92,4.92,0,0,0-.9,2H16.18A3,3,0,0,1,19,4l0-2A5,5,0,0,0,14,7V34.14l-2.93,7.5a.94.94,0,0,0,0,.62L13.69,52h-.17A2.52,2.52,0,0,0,11,54.52Zm14,0v5a.52.52,0,0,1-.52.52h-11a.52.52,0,0,1-.52-.52v-5a.52.52,0,0,1,.52-.52h11A.52.52,0,0,1,25,54.52ZM25,48c0-.43,0-.83,0-1.16a11,11,0,0,0-1-4.63V33.48a3.23,3.23,0,0,0-1.25-2.6l3.39-3.64A3.15,3.15,0,0,0,27,25h2V37a1,1,0,0,0,1,1h4a1,1,0,0,0,1-1V25h2a3.11,3.11,0,0,0,.84,2.23l3.4,3.65A3.21,3.21,0,0,0,40,33.48v8.73a10.93,10.93,0,0,0-1,4.63c0,.28,0,.69,0,1.16Zm9-27h4v1.8a.81.81,0,0,0-.14.12s0,0-.07.08H34a1,1,0,0,0-1,1V36H31V24a1,1,0,0,0-1-1H26.21l-.08-.1L26,22.79V21h4a1,1,0,0,0,1-1V16h2v4A1,1,0,0,0,34,21ZM51,54.52v5a.52.52,0,0,1-.52.52h-11a.52.52,0,0,1-.52-.52v-5a.52.52,0,0,1,.52-.52h11A.52.52,0,0,1,51,54.52ZM48.24,52H41.59A25.75,25.75,0,0,1,41,46.84a8.85,8.85,0,0,1,.89-4,1,1,0,0,0,.11-.45v-9a1.08,1.08,0,0,1,1-1.18,1.06,1.06,0,0,1,.48.12,1.12,1.12,0,0,1,.52.95V42h2V33.37a3.1,3.1,0,0,0-1.49-2.66,3,3,0,0,0-1-.38L39.3,25.86a1.16,1.16,0,0,1,0-1.56,1,1,0,0,1,1.4,0l5.44,5.47L51,42.05ZM16,11a5,5,0,0,0,3,1l0-2a3,3,0,0,1-2.79-2H44.11a5.05,5.05,0,0,0,.9,2H19v2H48l0,17-.06-.14a1,1,0,0,0-.22-.34l-5.58-5.6A3,3,0,0,0,40,22V20a1,1,0,0,0-1-1H35V15a1,1,0,0,0-1-1H30a1,1,0,0,0-1,1v4H25a1,1,0,0,0-1,1v2a3,3,0,0,0-2.12.9l-5.59,5.61a1,1,0,0,0-.22.35L16,29Zm-2.95,31.1,4.81-12.28,5.45-5.48a1,1,0,0,1,1.22-.14,1,1,0,0,1,.15.12,1.38,1.38,0,0,1,.16.23,1.16,1.16,0,0,1-.15,1.36l-4.16,4.47a2.89,2.89,0,0,0-1.05.38A3.08,3.08,0,0,0,18,33.37V42h2V33.37a1.1,1.1,0,0,1,.51-.94A1,1,0,0,1,21,32.3a1.08,1.08,0,0,1,1,1.18v9a1,1,0,0,0,.11.45,8.88,8.88,0,0,1,.89,4c0,.54,0,1.29-.12,2.07A20,20,0,0,1,22.4,52H15.76Z"/></svg>
