<?xml version="1.0"?>
<svg xmlns="http://www.w3.org/2000/svg" id="Layer_1" data-name="Layer 1" viewBox="0 0 64 64" width="512" height="512"><path d="M20.48,52h0A29.69,29.69,0,0,0,21,46.84a10.81,10.81,0,0,0-1-4.63V33.48a3.21,3.21,0,0,0-1.25-2.6l3.39-3.64a3.17,3.17,0,0,0,0-4.33,3,3,0,0,0-4.26,0l-5.59,5.61a1,1,0,0,0-.22.34l-5,12.78a1,1,0,0,0,0,.63L9.69,52H9.52A2.52,2.52,0,0,0,7,54.52v5A2.52,2.52,0,0,0,9.52,62h11A2.52,2.52,0,0,0,23,59.48v-5A2.52,2.52,0,0,0,20.48,52Zm-11.43-10,4.81-12.27,5.45-5.48a1,1,0,0,1,1.39,0,1.17,1.17,0,0,1,0,1.57l-4.16,4.46a3,3,0,0,0-1.06.39A3.09,3.09,0,0,0,14,33.37V42h2V33.37a1.1,1.1,0,0,1,.51-.94A.92.92,0,0,1,17,32.3a1.08,1.08,0,0,1,1,1.18v9a1,1,0,0,0,.11.45,8.88,8.88,0,0,1,.89,4A25.84,25.84,0,0,1,18.41,52H11.76ZM21,59.48a.52.52,0,0,1-.52.52h-11A.52.52,0,0,1,9,59.48v-5A.52.52,0,0,1,9.52,54h11a.52.52,0,0,1,.52.52Z"/><path d="M54.48,52h-.17L57,42.26a1,1,0,0,0,0-.63l-5-12.78a1,1,0,0,0-.22-.34l-5.58-5.6a3,3,0,0,0-4.27,0,3.15,3.15,0,0,0,0,4.31l3.4,3.65A3.21,3.21,0,0,0,44,33.48v8.73a10.81,10.81,0,0,0-1,4.63A29.69,29.69,0,0,0,43.54,52h0A2.52,2.52,0,0,0,41,54.52v5A2.52,2.52,0,0,0,43.52,62h11A2.52,2.52,0,0,0,57,59.48v-5A2.52,2.52,0,0,0,54.48,52ZM45,46.84a8.88,8.88,0,0,1,.89-4,1,1,0,0,0,.11-.45v-9a1.08,1.08,0,0,1,1-1.18.89.89,0,0,1,.47.12,1.11,1.11,0,0,1,.53.95V42h2V33.37a3.1,3.1,0,0,0-1.49-2.66,3,3,0,0,0-1-.38L43.3,25.86a1.16,1.16,0,0,1,0-1.56,1,1,0,0,1,1.4,0l5.44,5.47L55,42.05,52.24,52H45.59A25.84,25.84,0,0,1,45,46.84ZM55,59.48a.52.52,0,0,1-.52.52h-11a.52.52,0,0,1-.52-.52v-5a.52.52,0,0,1,.52-.52h11a.52.52,0,0,1,.52.52Z"/><path d="M35,8.33a4.3,4.3,0,0,0-.47-2v0l-1.6-3.73a1,1,0,0,0-1.84,0l-1.6,3.73v0a4.3,4.3,0,0,0-.47,2C29,10.39,30.32,12,32,12S35,10.39,35,8.33Zm-4,0a2.14,2.14,0,0,1,.28-1.1A1.08,1.08,0,0,0,31.36,7L32,5.54,32.64,7a1.19,1.19,0,0,0,.08.2A2.14,2.14,0,0,1,33,8.33c0,1-.53,1.67-1,1.67S31,9.29,31,8.33Z"/><path d="M37.5,35H36V15a1,1,0,0,0-1-1H29a1,1,0,0,0-1,1V35H26.5a2.5,2.5,0,0,0,0,5H27v7.5a4.49,4.49,0,0,0,2.27,3.89A2.43,2.43,0,0,0,29,52.5a2.51,2.51,0,0,0,.51,1.5,2.43,2.43,0,0,0-.33,2.41C26.7,57.17,25,58.92,25,61a1,1,0,0,0,1,1H38a1,1,0,0,0,1-1c0-2.08-1.7-3.83-4.18-4.59A2.43,2.43,0,0,0,34.49,54,2.51,2.51,0,0,0,35,52.5a2.43,2.43,0,0,0-.27-1.11A4.49,4.49,0,0,0,37,47.5V40h.5a2.5,2.5,0,0,0,0-5ZM30,16h4V35H30Zm6.7,44H27.3c.7-1.15,2.57-2,4.7-2S36,58.85,36.7,60Zm-5.2-4a.5.5,0,0,1,0-1h1a.5.5,0,0,1,0,1ZM33,52.5a.5.5,0,0,1-.5.5h-1a.5.5,0,0,1,0-1h1A.5.5,0,0,1,33,52.5Zm2-5A2.5,2.5,0,0,1,32.5,50h-1A2.5,2.5,0,0,1,29,47.5V40h6ZM37.5,38h-11a.5.5,0,0,1,0-1h11a.5.5,0,0,1,0,1Z"/></svg>
