<?xml version="1.0"?>
<svg xmlns="http://www.w3.org/2000/svg" id="Layer_1" data-name="Layer 1" viewBox="0 0 64 64" width="512" height="512"><path d="M13,13.33a4.3,4.3,0,0,0-.47-2v0l-1.6-3.73a1,1,0,0,0-1.84,0l-1.6,3.73v0a4.3,4.3,0,0,0-.47,2C7,15.39,8.32,17,10,17S13,15.39,13,13.33Zm-4,0a2.14,2.14,0,0,1,.28-1.1A1.08,1.08,0,0,0,9.36,12l.64-1.5L10.64,12a1.19,1.19,0,0,0,.08.2,2.14,2.14,0,0,1,.28,1.1c0,1-.53,1.67-1,1.67S9,14.29,9,13.33Z"/><path d="M15.5,35H14V20a1,1,0,0,0-1-1H7a1,1,0,0,0-1,1V35H4.5a2.5,2.5,0,0,0,0,5H5v7.5a4.49,4.49,0,0,0,2.27,3.89A2.43,2.43,0,0,0,7,52.5,2.51,2.51,0,0,0,7.51,54a2.43,2.43,0,0,0-.33,2.41C4.7,57.17,3,58.92,3,61a1,1,0,0,0,1,1H16a1,1,0,0,0,1-1c0-2.08-1.7-3.83-4.18-4.59A2.43,2.43,0,0,0,12.49,54,2.51,2.51,0,0,0,13,52.5a2.43,2.43,0,0,0-.27-1.11A4.49,4.49,0,0,0,15,47.5V40h.5a2.5,2.5,0,0,0,0-5ZM8,21h4V35H8Zm6.7,39H5.3c.7-1.15,2.57-2,4.7-2S14,58.85,14.7,60ZM9.5,56a.5.5,0,0,1,0-1h1a.5.5,0,0,1,0,1ZM11,52.5a.5.5,0,0,1-.5.5h-1a.5.5,0,0,1,0-1h1A.5.5,0,0,1,11,52.5Zm2-5A2.5,2.5,0,0,1,10.5,50h-1A2.5,2.5,0,0,1,7,47.5V40h6ZM15.5,38H4.5a.5.5,0,0,1,0-1h11a.5.5,0,0,1,0,1Z"/><path d="M35,8.33a4.3,4.3,0,0,0-.47-2v0l-1.6-3.73a1,1,0,0,0-1.84,0l-1.6,3.73v0a4.3,4.3,0,0,0-.47,2C29,10.39,30.32,12,32,12S35,10.39,35,8.33Zm-4,0a2.14,2.14,0,0,1,.28-1.1A1.08,1.08,0,0,0,31.36,7L32,5.54,32.64,7a1.19,1.19,0,0,0,.08.2A2.14,2.14,0,0,1,33,8.33c0,1-.53,1.67-1,1.67S31,9.29,31,8.33Z"/><path d="M37.5,35H36V15a1,1,0,0,0-1-1H29a1,1,0,0,0-1,1V35H26.5a2.5,2.5,0,0,0,0,5H27v7.5a4.49,4.49,0,0,0,2.27,3.89A2.43,2.43,0,0,0,29,52.5a2.51,2.51,0,0,0,.51,1.5,2.43,2.43,0,0,0-.33,2.41C26.7,57.17,25,58.92,25,61a1,1,0,0,0,1,1H38a1,1,0,0,0,1-1c0-2.08-1.7-3.83-4.18-4.59A2.43,2.43,0,0,0,34.49,54,2.51,2.51,0,0,0,35,52.5a2.43,2.43,0,0,0-.27-1.11A4.49,4.49,0,0,0,37,47.5V40h.5a2.5,2.5,0,0,0,0-5ZM30,16h4V35H30Zm6.7,44H27.3c.7-1.15,2.57-2,4.7-2S36,58.85,36.7,60Zm-5.2-4a.5.5,0,0,1,0-1h1a.5.5,0,0,1,0,1ZM33,52.5a.5.5,0,0,1-.5.5h-1a.5.5,0,0,1,0-1h1A.5.5,0,0,1,33,52.5Zm2-5A2.5,2.5,0,0,1,32.5,50h-1A2.5,2.5,0,0,1,29,47.5V40h6ZM37.5,38h-11a.5.5,0,0,1,0-1h11a.5.5,0,0,1,0,1Z"/><path d="M57,13.33a4.3,4.3,0,0,0-.47-2v0l-1.6-3.73a1,1,0,0,0-1.84,0l-1.6,3.73v0a4.3,4.3,0,0,0-.47,2C51,15.39,52.32,17,54,17S57,15.39,57,13.33Zm-4,0a2.14,2.14,0,0,1,.28-1.1,1.08,1.08,0,0,0,.08-.19l.64-1.5L54.64,12a1.19,1.19,0,0,0,.08.2,2.14,2.14,0,0,1,.28,1.1c0,1-.53,1.67-1,1.67S53,14.29,53,13.33Z"/><path d="M59.5,35H58V20a1,1,0,0,0-1-1H51a1,1,0,0,0-1,1V35H48.5a2.5,2.5,0,0,0,0,5H49v7.5a4.49,4.49,0,0,0,2.27,3.89A2.43,2.43,0,0,0,51,52.5a2.51,2.51,0,0,0,.51,1.5,2.43,2.43,0,0,0-.33,2.41C48.7,57.17,47,58.92,47,61a1,1,0,0,0,1,1H60a1,1,0,0,0,1-1c0-2.08-1.7-3.83-4.18-4.59A2.43,2.43,0,0,0,56.49,54,2.51,2.51,0,0,0,57,52.5a2.43,2.43,0,0,0-.27-1.11A4.49,4.49,0,0,0,59,47.5V40h.5a2.5,2.5,0,0,0,0-5ZM52,21h4V35H52Zm6.7,39H49.3c.7-1.15,2.57-2,4.7-2S58,58.85,58.7,60Zm-5.2-4a.5.5,0,0,1,0-1h1a.5.5,0,0,1,0,1ZM55,52.5a.5.5,0,0,1-.5.5h-1a.5.5,0,0,1,0-1h1A.5.5,0,0,1,55,52.5Zm2-5A2.5,2.5,0,0,1,54.5,50h-1A2.5,2.5,0,0,1,51,47.5V40h6ZM59.5,38h-11a.5.5,0,0,1,0-1h11a.5.5,0,0,1,0,1Z"/></svg>
