<?xml version="1.0"?>
<svg xmlns="http://www.w3.org/2000/svg" id="Layer_1" data-name="Layer 1" viewBox="0 0 64 64" width="512" height="512"><path d="M60,38.68A1,1,0,0,0,59,38H49.79l-1-4.23a1,1,0,0,0-1-.77H39.91l-.4-4.1a1,1,0,0,0-1-.9H35a1,1,0,0,0,.73-.32,1,1,0,0,0,.27-.75l-.92-13.69L38.8,14a1,1,0,0,0,.83-.21A1,1,0,0,0,40,13V7a1,1,0,0,0-.37-.77A1,1,0,0,0,38.8,6l-3.53.71L36,3.2a1,1,0,0,0-.21-.83A1,1,0,0,0,35,2H29a1,1,0,0,0-.77.37A1,1,0,0,0,28,3.2l.71,3.53L25.2,6a1,1,0,0,0-.83.21A1,1,0,0,0,24,7v6a1,1,0,0,0,.37.77,1,1,0,0,0,.83.21l3.72-.74L28,26.93a1,1,0,0,0,.27.75A1,1,0,0,0,29,28H25.48a1,1,0,0,0-1,.9l-.4,4.1H16.17a1,1,0,0,0-1,.77l-1,4.23H5a1,1,0,0,0-1,.68l-2,6a1,1,0,0,0,.14.9A1,1,0,0,0,3,46H61a1,1,0,0,0,.81-.42,1,1,0,0,0,.14-.9ZM26,11.78V8.22L29.8,9a1,1,0,0,0,.91-.27A1,1,0,0,0,31,7.8L30.22,4h3.56L33,7.8a1,1,0,0,0,.27.91A1,1,0,0,0,34.2,9L38,8.22v3.56L34.2,11a1,1,0,0,0-.86.23,1,1,0,0,0-.34.82L33.93,26H30.07L31,12.07a1,1,0,0,0-.34-.82A1,1,0,0,0,29.8,11ZM26.39,30H37.61l.29,3H26.1ZM17,35H47l.7,3H16.26ZM4.39,44l1.33-4H58.28l1.33,4Z"/><path d="M61.92,48.62A1,1,0,0,0,61,48H45a1,1,0,0,0-1,1v1.87A31.13,31.13,0,0,1,32,53a31.13,31.13,0,0,1-12-2.13V49a1,1,0,0,0-1-1H3a1,1,0,0,0-.92.62,1,1,0,0,0,.21,1.09L5.59,53l-3.3,3.29a1,1,0,0,0-.21,1.09A1,1,0,0,0,3,58H16.28c3.09,2.46,9,4,15.72,4s12.63-1.54,15.72-4H61a1,1,0,0,0,.92-.62,1,1,0,0,0-.21-1.09L58.41,53l3.3-3.29A1,1,0,0,0,61.92,48.62ZM7.71,53.71a1,1,0,0,0,0-1.42L5.41,50H15v6H5.41ZM47,56c-2.39,2.38-8.46,4-15,4s-12.61-1.64-15-4V51.52C20.28,53.7,25.84,55,32,55s11.72-1.3,15-3.48Zm9.29-3.69a1,1,0,0,0,0,1.42L58.59,56H49V50h9.59Z"/><path d="M54.14,19a1,1,0,0,0-1,.72l-2,6.88a1,1,0,0,0,0,.51l2,8.13a1,1,0,0,0,1.94,0l2-8.13a.88.88,0,0,0,0-.51l-2-6.88A1,1,0,0,0,54.14,19Zm0,11.82-1-3.92,1-3.32,1,3.32Z"/><path d="M45,11a1,1,0,0,0-1,.72L42,18.6a1,1,0,0,0,0,.51l2,8.13a1,1,0,0,0,1.94,0l2-8.13a1,1,0,0,0,0-.51l-2-6.88A1,1,0,0,0,45,11Zm0,11.82L44,18.9l1-3.32,1,3.32Z"/><path d="M10,19a1,1,0,0,0-1,.72L7,26.6a1,1,0,0,0,0,.51l2,8.13a1,1,0,0,0,1.94,0l2-8.13a1,1,0,0,0,0-.51l-2-6.88A1,1,0,0,0,10,19Zm0,11.82L9,26.9l1-3.32,1,3.32Z"/><path d="M19,11a1,1,0,0,0-1,.72L16,18.6a1,1,0,0,0,0,.51l2,8.13a1,1,0,0,0,1.94,0l2-8.13a1,1,0,0,0,0-.51l-2-6.88A1,1,0,0,0,19,11Zm0,11.82L18,18.9l1-3.32,1,3.32Z"/></svg>
