<?xml version="1.0"?>
<svg xmlns="http://www.w3.org/2000/svg" id="Layer_1" data-name="Layer 1" viewBox="0 0 64 64" width="512" height="512"><path d="M2.08,54.38A1,1,0,0,0,3,55H15v1.37a1,1,0,0,0,.25.66c2.63,3,9.2,5,16.75,5s14.12-2,16.75-5a1,1,0,0,0,.25-.66V55H61a1,1,0,0,0,.92-.62,1,1,0,0,0-.21-1.09L58.41,50l3.3-3.29a1,1,0,0,0,.21-1.09A1,1,0,0,0,61,45H45a1,1,0,0,0-1,1v4.1C40.74,51.39,35.77,53,32,53s-8.74-1.61-12-2.9V46a1,1,0,0,0-1-1H3a1,1,0,0,0-.92.62,1,1,0,0,0,.21,1.09L5.59,50l-3.3,3.29A1,1,0,0,0,2.08,54.38ZM46,47H58.59l-2.3,2.29a1,1,0,0,0,0,1.42L58.59,53H49V49.37a1,1,0,0,0-.66-.94,1,1,0,0,0-1,.19,14.49,14.49,0,0,1-1.34.65Zm1,4V56c-2.39,2.38-8.46,4-15,4s-12.61-1.64-15-4V51c3.24,1.52,10.16,4,15,4S43.76,52.55,47,51ZM7.71,50.71a1,1,0,0,0,0-1.42L5.41,47H18v2.27a14.49,14.49,0,0,1-1.34-.65,1,1,0,0,0-1-.19,1,1,0,0,0-.66.94V53H5.41Z"/><path d="M19,13v6a1,1,0,0,0,1,1h8V40a1,1,0,0,0,1,1h6a1,1,0,0,0,1-1V20h8a1,1,0,0,0,1-1V13a1,1,0,0,0-1-1H36V5a1,1,0,0,0-1-1H29a1,1,0,0,0-1,1v7H20A1,1,0,0,0,19,13Zm2,1h8a1,1,0,0,0,1-1V6h4v7a1,1,0,0,0,1,1h8v4H35a1,1,0,0,0-1,1V39H30V19a1,1,0,0,0-1-1H21Z"/><path d="M12.1,43.86a1.07,1.07,0,0,0,.52.14,1,1,0,0,0,.77-.36l8.42-10.1a1.18,1.18,0,0,0,.16-.29l4-10.45a1,1,0,0,0-1.69-1l-7.39,8.39a1,1,0,0,0-.17.28l-5,12.17A1,1,0,0,0,12.1,43.86Zm6.37-12.49,3.65-4.14-2,5.15-4.15,5Z"/><path d="M3.77,16.7l6.5,1.5.23,0a1.09,1.09,0,0,0,.26,0l5.5-1.5a1,1,0,0,0,.74-1,1,1,0,0,0-.74-1l-5.5-1.5a.9.9,0,0,0-.49,0l-6.5,1.5a1,1,0,0,0-.77,1A1,1,0,0,0,3.77,16.7Zm6.71-1.45,1.72.47-1.72.47-2-.47Z"/><path d="M18,8.23a1,1,0,0,0,.37.17L24.61,10l.24,0a1,1,0,0,0,.89-.55,1,1,0,0,0-.25-1.22L20.69,4.3a1,1,0,0,0-.36-.19L13.13,2a1,1,0,0,0-.89,1.75ZM19.58,6l1.16,1L19.1,6.51,17.68,5.43Z"/><path d="M13.35,28.65l4.47-6.31a1,1,0,0,0-.08-1.25,1,1,0,0,0-1.24-.2L10,24.66a1.06,1.06,0,0,0-.29.27L4.2,32.16a1,1,0,0,0,.8,1.6,1,1,0,0,0,.53-.15l7.53-4.69A.84.84,0,0,0,13.35,28.65ZM9,29.07l2.1-2.78,2.42-1.39-1.72,2.43Z"/><path d="M47.14,30.17l-7.39-8.39a1,1,0,0,0-1.69,1l4,10.45a1.18,1.18,0,0,0,.16.29l8.42,10.1a1,1,0,0,0,.77.36,1.07,1.07,0,0,0,.52-.14,1,1,0,0,0,.41-1.24l-5-12.17A1,1,0,0,0,47.14,30.17Zm-3.3,2.21-2-5.15,3.65,4.14,2.46,6Z"/><path d="M47,15.72a1,1,0,0,0,.74,1l5.5,1.5a1.09,1.09,0,0,0,.26,0l.23,0,6.5-1.5a1,1,0,0,0,.77-1,1,1,0,0,0-.77-1l-6.5-1.5a.9.9,0,0,0-.49,0l-5.5,1.5A1,1,0,0,0,47,15.72Zm6.52-.47,2,.47-2,.47-1.72-.47Z"/><path d="M39.15,10l.24,0,6.2-1.57A1,1,0,0,0,46,8.23l5.8-4.44A1,1,0,0,0,52,2.55,1,1,0,0,0,50.87,2l-7.2,2.07a1,1,0,0,0-.36.19l-4.8,3.93a1,1,0,0,0-.25,1.22A1,1,0,0,0,39.15,10Zm5.27-4,1.9-.54L44.9,6.51l-1.64.42Z"/><path d="M59,33.76a1,1,0,0,0,.8-1.6l-5.47-7.23a1.06,1.06,0,0,0-.29-.27L47.5,20.89a1,1,0,0,0-1.24.2,1,1,0,0,0-.08,1.25l4.47,6.31a.84.84,0,0,0,.29.27l7.53,4.69A1,1,0,0,0,59,33.76Zm-6.84-6.43L50.44,24.9l2.42,1.39L55,29.07Z"/></svg>
