<?xml version="1.0"?>
<svg xmlns="http://www.w3.org/2000/svg" id="Layer_1" data-name="Layer 1" viewBox="0 0 64 64" width="512" height="512"><path d="M20.11,19,28,18.12,27,38a1,1,0,0,0,.28.74A1,1,0,0,0,28,39h8a1,1,0,0,0,.72-.31A1,1,0,0,0,37,38l-1-19.83,7.84.87a1,1,0,0,0,.78-.24A1,1,0,0,0,45,18V10a1,1,0,0,0-.33-.75A1,1,0,0,0,43.89,9l-7.74.86L37,3.12a1,1,0,0,0-.24-.78A1,1,0,0,0,36,2H28a1,1,0,0,0-.75.34,1,1,0,0,0-.24.78l.84,6.75L20.11,9a1,1,0,0,0-.78.24A1,1,0,0,0,19,10v8a1,1,0,0,0,.33.75A1,1,0,0,0,20.11,19ZM21,11.12l7.89.87A1,1,0,0,0,30,10.88L29.13,4h5.74L34,10.88A1,1,0,0,0,35.11,12L43,11.12v5.76L35.11,16a1,1,0,0,0-.79.26,1,1,0,0,0-.32.78l1,20h-5.9L30,17.05a1,1,0,0,0-.32-.78,1,1,0,0,0-.79-.26L21,16.88Z"/><path d="M61,42H59V27a1,1,0,0,0-1-1H52a1,1,0,0,0-1,1V42H49a1,1,0,0,0-.62.23h0L38.63,50a36,36,0,0,1-6.63.76A36,36,0,0,1,25.37,50l-9.75-7.8h0A1,1,0,0,0,15,42H13V27a1,1,0,0,0-1-1H6a1,1,0,0,0-1,1V42H3a1,1,0,0,0-1,1V61a1,1,0,0,0,1.64.77L9,57.3l5.36,4.47A1,1,0,0,0,15,62a1,1,0,0,0,.42-.09A1,1,0,0,0,16,61V57.6A48,48,0,0,0,32,60a48,48,0,0,0,16-2.4V61a1,1,0,0,0,1.64.77L55,57.3l5.36,4.47A1,1,0,0,0,61,62a1,1,0,0,0,.42-.09A1,1,0,0,0,62,61V43A1,1,0,0,0,61,42ZM53,28h4V42H53ZM48,45.08V47.5c-1.37.46-3,1-4.85,1.46ZM20.85,49C19,48.47,17.37,48,16,47.5V45.08ZM7,28h4V42H7Zm7,30.86L9.64,55.23a1,1,0,0,0-1.28,0L4,58.86V44H14v2.79a14.16,14.16,0,0,1-1.4-.59A1,1,0,0,0,11,47v7.22a1,1,0,0,0,.31.73A11.13,11.13,0,0,0,14,56.74Zm-1-5.09V48.52c3.74,1.48,12.73,4.26,19,4.26S47.26,50,51,48.52v5.25C48,56.28,40.28,58,32,58S16,56.28,13,53.77Zm47,5.09-4.36-3.63a1,1,0,0,0-1.28,0L50,58.86V56.74A11.13,11.13,0,0,0,52.69,55a1,1,0,0,0,.31-.73V47a1,1,0,0,0-1.6-.8,14.16,14.16,0,0,1-1.4.59V44H60Z"/><path d="M9,24c1.68,0,3-1.61,3-3.67a4.23,4.23,0,0,0-.47-2v0l-1.6-3.73a1,1,0,0,0-1.84,0l-1.6,3.73v0a4.23,4.23,0,0,0-.47,2C6,22.39,7.32,24,9,24Zm-.72-4.77a1.19,1.19,0,0,0,.08-.2L9,17.54,9.64,19a1,1,0,0,0,.08.21,2.25,2.25,0,0,1,.28,1.1c0,1-.53,1.67-1,1.67s-1-.71-1-1.67A2.25,2.25,0,0,1,8.28,19.23Z"/><path d="M55,24c1.68,0,3-1.61,3-3.67a4.23,4.23,0,0,0-.47-2v0l-1.6-3.73a1,1,0,0,0-1.84,0l-1.6,3.73v0a4.23,4.23,0,0,0-.47,2C52,22.39,53.32,24,55,24Zm-.72-4.77a1.19,1.19,0,0,0,.08-.2L55,17.54,55.64,19a1,1,0,0,0,.08.21,2.25,2.25,0,0,1,.28,1.1c0,1-.53,1.67-1,1.67s-1-.71-1-1.67A2.25,2.25,0,0,1,54.28,19.23Z"/></svg>
