<svg id="Layer_1" height="512" viewBox="0 0 64 64" width="512" xmlns="http://www.w3.org/2000/svg" data-name="Layer 1"><path d="m23 5c0 2.86 7.5 3 9 3s9-.14 9-3-7.5-3-9-3-9 .14-9 3zm9 1a17.48 17.48 0 0 1 -6.73-1 17.48 17.48 0 0 1 6.73-1 17.48 17.48 0 0 1 6.73 1 17.48 17.48 0 0 1 -6.73 1z"/><path d="m50 16a12.09 12.09 0 0 0 -11.62 8.22l-2.79-2.22a7 7 0 1 0 -7.18 0l-2.79 2.22a12.09 12.09 0 0 0 -11.62-8.22c-6.61 0-12 5.1-12 11.37v33.63a1 1 0 0 0 1 1 4.87 4.87 0 0 0 4.28-3.08 7.73 7.73 0 0 0 .51-1.54 4.29 4.29 0 0 0 .51.28 3.91 3.91 0 0 0 1.7.34c2.33 0 4.34-2 4.86-4.92a7.48 7.48 0 0 0 .14-1.08 3.86 3.86 0 0 0 1 .15 4.27 4.27 0 0 0 3.24-1.65 23 23 0 0 0 3.76 2.37v3.13a3 3 0 0 0 6 0v-1.17a20 20 0 0 0 3 .25 19.8 19.8 0 0 0 3-.24v1.16a3 3 0 0 0 6 0v-3a22.1 22.1 0 0 0 3.82-2.43 4.26 4.26 0 0 0 3.18 1.54 3.86 3.86 0 0 0 1-.11 7.23 7.23 0 0 0 .12 1.15c.53 2.85 2.54 4.85 4.88 4.85a4.12 4.12 0 0 0 2.22-.66 7.73 7.73 0 0 0 .52 1.56 4.86 4.86 0 0 0 4.26 3.1 1 1 0 0 0 1-1v-33.62c0-6.28-5.39-11.38-12-11.38zm-18-.26a7 7 0 0 0 4 1.26 6.84 6.84 0 0 0 .91-.08 5 5 0 0 1 -9.82 0 6.84 6.84 0 0 0 .91.08 7 7 0 0 0 4-1.26zm4.87-.83a5.08 5.08 0 0 1 -3.37-.6 6.91 6.91 0 0 0 1.25-2.48 5 5 0 0 1 2.12 3.08zm-4.87-3.91a4.92 4.92 0 0 1 .86.09 5 5 0 0 1 -5.73 3.83 5 5 0 0 1 4.87-3.92zm0 12a7 7 0 0 0 1.46-.15l2.69 2.15h-8.3l2.69-2.15a7 7 0 0 0 1.46.15zm-16 27.11a2 2 0 0 1 -1.23-.47 6.37 6.37 0 0 0 -2.13-3.51l-1.24 1.58a5 5 0 0 1 1.6 3.76v.14a6 6 0 0 1 -.1 1.14c-.43 2.33-2.21 3.83-3.77 3.1a3.16 3.16 0 0 1 -1.13-1.05 7.31 7.31 0 0 0 -1.1-3.35l-1.73 1.09a5.48 5.48 0 0 1 .83 2.71v.31a6.21 6.21 0 0 1 -.53 2.52 3.62 3.62 0 0 1 -1.47 1.66v-32.34c0-5.18 4.49-9.4 10-9.4a10 10 0 0 1 10 8l-6 22.73a2.64 2.64 0 0 1 -2 1.38zm11 5.89a1 1 0 0 1 -2 0v-2.23a18.56 18.56 0 0 0 2 .64zm12 0a1 1 0 0 1 -2 0v-1.55a20.09 20.09 0 0 0 2-.62zm-7-2.92a18.68 18.68 0 0 1 -11.87-4.45l2.78-10.63 1.67 1.68a1 1 0 0 0 .75.33 1.06 1.06 0 0 0 .45-.11.89.89 0 0 0 .29-.22l2.18-2.18a2.57 2.57 0 0 0 0-3.63 2.57 2.57 0 0 0 -3.63 0l-.86.86 2-7.72h12.47l2 7.7-.84-.84a2.57 2.57 0 0 0 -3.63 0 2.57 2.57 0 0 0 0 3.63l2.2 2.2a1 1 0 0 0 .28.2.87.87 0 0 0 .44.11 1 1 0 0 0 .76-.35l1.64-1.66 2.79 10.77a18.62 18.62 0 0 1 -11.87 4.31zm-7.47-16.3 1.47-1.51a.6.6 0 0 1 .81 0 .61.61 0 0 1 .16.42.59.59 0 0 1 -.16.39l-1.51 1.5zm14.94 0-.8.8-1.51-1.5a.61.61 0 0 1 -.16-.42.59.59 0 0 1 .16-.39.57.57 0 0 1 .4-.16.57.57 0 0 1 .41.16zm20.53 22.96a3.57 3.57 0 0 1 -1.46-1.65 6.14 6.14 0 0 1 -.54-2.53c0-.1 0-.2 0-.33a5.46 5.46 0 0 1 .82-2.69l-1.68-1.09a7.16 7.16 0 0 0 -1.1 3.35 3.05 3.05 0 0 1 -1.21 1.05 1.92 1.92 0 0 1 -.83.15c-1.33 0-2.55-1.38-2.9-3.29a6 6 0 0 1 -.1-1.14s0-.1 0-.23a4.9 4.9 0 0 1 1.6-3.67l-1.24-1.58a6.41 6.41 0 0 0 -2.14 3.52 2 2 0 0 1 -1.22.46 2.65 2.65 0 0 1 -2.09-1.45l-5.91-22.62a10 10 0 0 1 10-8c5.51 0 10 4.22 10 9.4z"/><path d="m36.15 40.07-2.24-.34-1-2.15a1 1 0 0 0 -1.82 0l-1 2.15-2.24.34a1 1 0 0 0 -.57 1.68l1.65 1.69-.39 2.4a1 1 0 0 0 1.47 1l2-1.1 2 1.1a1 1 0 0 0 .48.12 1 1 0 0 0 1-1.16l-.39-2.4 1.65-1.69a1 1 0 0 0 -.57-1.68zm-2.87 2.34a1 1 0 0 0 -.27.86l.14.86-.67-.37a1 1 0 0 0 -1 0l-.67.37.14-.86a1 1 0 0 0 -.27-.86l-.65-.66.85-.13a1 1 0 0 0 .75-.56l.33-.71.33.71a1 1 0 0 0 .75.56l.85.13z"/><path d="m18 7.74a1 1 0 0 0 -.8-.67l-2.24-.34-1-2.15a1 1 0 0 0 -1.82 0l-1 2.15-2.24.34a1 1 0 0 0 -.57 1.68l1.65 1.69-.39 2.4a1 1 0 0 0 1.47 1l2-1.1 2 1.1a1 1 0 0 0 .48.12 1 1 0 0 0 1-1.16l-.39-2.4 1.65-1.69a1 1 0 0 0 .2-.97zm-3.72 1.67a1 1 0 0 0 -.27.86l.14.86-.67-.37a1 1 0 0 0 -1 0l-.67.37.14-.86a1 1 0 0 0 -.27-.86l-.65-.66.85-.13a1 1 0 0 0 .75-.56l.37-.71.33.71a1 1 0 0 0 .75.56l.85.13z"/><path d="m55 7.74a1 1 0 0 0 -.8-.67l-2.24-.34-1-2.15a1 1 0 0 0 -1.82 0l-1 2.15-2.24.34a1 1 0 0 0 -.57 1.68l1.65 1.69-.39 2.4a1 1 0 0 0 1.47 1l2-1.1 2 1.1a1 1 0 0 0 .48.12 1 1 0 0 0 1-1.16l-.39-2.4 1.65-1.69a1 1 0 0 0 .2-.97zm-3.72 1.67a1 1 0 0 0 -.27.86l.14.86-.67-.37a1 1 0 0 0 -1 0l-.67.37.14-.86a1 1 0 0 0 -.27-.86l-.65-.66.85-.13a1 1 0 0 0 .75-.56l.37-.71.33.71a1 1 0 0 0 .75.56l.85.13z"/><path d="m15 23v-3h-2v3h-3v2h3v9h2v-9h3v-2z"/><path d="m51 20h-2v3h-3v2h3v9h2v-9h3v-2h-3z"/></svg>