<svg id="Layer_1" height="512" viewBox="0 0 64 64" width="512" xmlns="http://www.w3.org/2000/svg" data-name="Layer 1">
    <path fill="currentColor" d="m11.18 52.26-.19.06a2.58 2.58 0 0 0 -1.5 1.32 2.49 2.49 0 0 0 -.1 1.93l1.72 4.74a2.59 2.59 0 0 0 2.45 1.69 2.51 2.51 0 0 0 .84-.14l10.85-3.66a2.53 2.53 0 0 0 1.5-1.31 2.45 2.45 0 0 0 .1-1.93l-1.72-4.74a2.61 2.61 0 0 0 -3.28-1.56h-.1a29.89 29.89 0 0 0 -1.25-5.15 10.86 10.86 0 0 0 -2.6-4.09l-3-8.34a3.32 3.32 0 0 0 -2.14-2.06l2.1-4.61a3.15 3.15 0 0 0 -3.86-4.24 3 3 0 0 0 -1.73 1.55l-3.6 7.22a1.17 1.17 0 0 0 -.1.41l-.57 13.88a1 1 0 0 0 .19.62zm11.3-1.7a.76.76 0 0 1 .21 0 .58.58 0 0 1 .56.37l1.75 4.71a.48.48 0 0 1 0 .36.55.55 0 0 1 -.34.29l-10.9 3.71a.6.6 0 0 1 -.77-.34l-1.72-4.74a.47.47 0 0 1 0-.38.58.58 0 0 1 .34-.29l1.68-.57 7.85-2.68zm-15-20.92 3.51-7a1.06 1.06 0 0 1 .59-.53 1.07 1.07 0 0 1 .86.06 1.13 1.13 0 0 1 .56 1.44l-2.57 5.67a3 3 0 0 0 -.91.71 3.05 3.05 0 0 0 -.52 3.01l3 8.24 1.88-.68-3-8.24a1.06 1.06 0 0 1 .17-1.06 1.15 1.15 0 0 1 .47-.3 1.18 1.18 0 0 1 1.48.84l3.1 8.56a1.16 1.16 0 0 0 .26.39 9 9 0 0 1 2.26 3.48 25.4 25.4 0 0 1 1.19 5.12l-6.65 2.24-6.16-8.59z"/>
    <path fill="currentColor" d="m50.63 20.32a3.15 3.15 0 0 0 -1.48 4.12l2.1 4.62a3.32 3.32 0 0 0 -2.14 2.06l-3 8.34a10.86 10.86 0 0 0 -2.6 4.09 29.89 29.89 0 0 0 -1.25 5.15h-.1a2.61 2.61 0 0 0 -3.28 1.56l-1.73 4.74a2.45 2.45 0 0 0 .1 1.93 2.53 2.53 0 0 0 1.5 1.31l10.85 3.62a2.47 2.47 0 0 0 .84.14 2.59 2.59 0 0 0 2.45-1.69l1.72-4.74a2.49 2.49 0 0 0 -.1-1.93 2.58 2.58 0 0 0 -1.51-1.32l-.19-.06 6-8.41a1 1 0 0 0 .19-.62l-.53-13.88a1.17 1.17 0 0 0 -.1-.41l-3.59-7.21a3.07 3.07 0 0 0 -1.78-1.56 3.15 3.15 0 0 0 -2.37.15zm2.1 34.57-1.73 4.74a.61.61 0 0 1 -.77.34l-10.84-3.66a.55.55 0 0 1 -.34-.29.48.48 0 0 1 0-.38l1.72-4.74a.58.58 0 0 1 .56-.37.76.76 0 0 1 .21 0l1.34.45 7.83 2.64 1.68.57a.58.58 0 0 1 .34.29.47.47 0 0 1 0 .41zm-.35-32.83a1.08 1.08 0 0 1 .6.55l3.5 7 .52 13.39-6.15 8.62-6.65-2.24a25.4 25.4 0 0 1 1.19-5.12 9 9 0 0 1 2.26-3.48 1.16 1.16 0 0 0 .26-.39l3.09-8.59a1.18 1.18 0 0 1 1.47-.8 1 1 0 0 1 .64 1.36l-3 8.24 1.88.68 3.01-8.28a3.08 3.08 0 0 0 -.56-3 3 3 0 0 0 -.9-.69l-2.54-5.71a1.14 1.14 0 0 1 .55-1.48 1.1 1.1 0 0 1 .83-.06z"/>
    <path fill="currentColor" d="m20 18h8v20a1 1 0 0 0 1 1h6a1 1 0 0 0 1-1v-20h8a1 1 0 0 0 1-1v-6a1 1 0 0 0 -1-1h-8v-7a1 1 0 0 0 -1-1h-6a1 1 0 0 0 -1 1v7h-8a1 1 0 0 0 -1 1v6a1 1 0 0 0 1 1zm1-6h8a1 1 0 0 0 1-1v-7h4v7a1 1 0 0 0 1 1h8v4h-8a1 1 0 0 0 -1 1v20h-4v-20a1 1 0 0 0 -1-1h-8z"/>
    <path fill="currentColor" d="m15.34 24h11.31v2h-11.31z" transform="matrix(.707 -.707 .707 .707 -11.53 22.17)"/>
    <path fill="currentColor" d="m42 19.34h2v11.31h-2z" transform="matrix(.707 -.707 .707 .707 -5.08 37.73)"/>
    <path fill="currentColor" d="m38.5 4.5h5v2h-5z" transform="matrix(.8 -.6 .6 .8 4.9 25.71)"/>
    <path fill="currentColor" d="m22 3h2v5h-2z" transform="matrix(.6 -.8 .8 .6 4.8 20.6)"/>
    <path fill="currentColor" d="m47 13h6v2h-6z"/>
    <path fill="currentColor" d="m11 13h6v2h-6z"/>
</svg>