<?xml version="1.0"?>
<svg xmlns="http://www.w3.org/2000/svg" id="Layer_1" data-name="Layer 1" viewBox="0 0 64 64" width="512" height="512">
    <path fill="currentColor" d="M53,23.56V17h3V15H53V12H51v3H48v2h3v6.56l-7,6.38V12a1,1,0,0,0-.37-.77l-11-9a1,1,0,0,0-1.26,0l-11,9A1,1,0,0,0,20,12V29.94l-7-6.38V17h3V15H13V12H11v3H8v2h3v6.56L2.33,31.47a1,1,0,0,0-.33.74V61a1,1,0,0,0,1,1H61a1,1,0,0,0,1-1V32.21a1,1,0,0,0-.33-.74ZM4,32.65l8-7.3,8,7.3V60H4Zm18-.44V12.47L32,4.29l10,8.18V60H39V40.77a1,1,0,0,0-.31-.72l-6-5.77a1,1,0,0,0-1.38,0l-6,5.77a1,1,0,0,0-.31.72V60H22ZM27,60V41.2l5-4.81,5,4.81V60Zm33,0H44V32.65l8-7.3,8,7.3Z"/>
    <path fill="currentColor" d="M51.42,44.18l-5,3.55a1,1,0,0,0-.42.82V57a1,1,0,0,0,1,1H57a1,1,0,0,0,1-1V48.55a1,1,0,0,0-.42-.82l-5-3.55A1,1,0,0,0,51.42,44.18Zm.58,2L54.5,48h-5ZM51,50v2H48V50Zm2,0h3v2H53Zm-5,4h3v2H48Zm5,2V54h3v2Z"/>
    <polygon fill="currentColor" points="31 20 33 20 33 13 36 13 36 11 33 11 33 8 31 8 31 11 28 11 28 13 31 13 31 20"/>
    <path fill="currentColor" d="M12,40a5,5,0,1,0-5-5A5,5,0,0,0,12,40ZM9.18,36H11v1.82A3,3,0,0,1,9.18,36ZM13,37.82V36h1.82A3,3,0,0,1,13,37.82ZM14.82,34H13V32.18A3,3,0,0,1,14.82,34ZM11,32.18V34H9.18A3,3,0,0,1,11,32.18Z"/>
    <path fill="currentColor" d="M47,35a5,5,0,1,0,5-5A5,5,0,0,0,47,35Zm4-2.82V34H49.18A3,3,0,0,1,51,32.18ZM49.18,36H51v1.82A3,3,0,0,1,49.18,36ZM53,37.82V36h1.82A3,3,0,0,1,53,37.82ZM54.82,34H53V32.18A3,3,0,0,1,54.82,34Z"/>
    <path fill="currentColor" d="M17.58,47.73l-5-3.55a1,1,0,0,0-1.16,0l-5,3.55a1,1,0,0,0-.42.82V57a1,1,0,0,0,1,1H17a1,1,0,0,0,1-1V48.55A1,1,0,0,0,17.58,47.73ZM12,46.23,14.5,48h-5ZM11,50v2H8V50Zm2,0h3v2H13ZM8,54h3v2H8Zm5,2V54h3v2Z"/>
</svg>
