<?xml version="1.0"?>
<svg xmlns="http://www.w3.org/2000/svg" id="Layer_1" data-name="Layer 1" viewBox="0 0 64 64" width="512" height="512">
    <path fill="currentColor" d="M31,22.43,16.49,31.14a1,1,0,0,0-.48,1l.29,2.12L7.46,39.93a1,1,0,0,0-.45,1l3.18,20.23a1,1,0,0,0,1,.84h42.7a1,1,0,0,0,1-.9L57,40.87a1,1,0,0,0-.45-.94L47.7,34.26,48,32.14a1,1,0,0,0-.48-1L33,22.43V16h3V14H33V11H31v3H28v2h3ZM9.09,41.26l7.51-4.82L19.85,60H12ZM29.24,60,28.05,47.69,32,44.31l4,3.38L34.76,60Zm25.7-18.72L53,60H44.15L47.4,36.44ZM42.13,60H36.77L38,47.36a1,1,0,0,0-.35-.86l-5-4.26a1,1,0,0,0-1.3,0l-5,4.26a1,1,0,0,0-.35.86L27.23,60H21.87L18.08,32.52,32,24.17l13.92,8.35Z"/>
    <path fill="currentColor" d="M4,17H24a1,1,0,0,0,.8-.4A6,6,0,0,0,19.92,7,6,6,0,0,0,8.08,7,6,6,0,0,0,3.2,16.6,1,1,0,0,0,4,17ZM8,9a4.82,4.82,0,0,1,.81.08A4,4,0,0,1,12,12.92a1,1,0,0,0,2,0v0a6,6,0,0,0-3.94-5.52A4,4,0,0,1,18,8a1,1,0,0,0,1.17,1.12A5.26,5.26,0,0,1,20,9a4,4,0,0,1,4,4,3.94,3.94,0,0,1-.53,2H4.53A3.94,3.94,0,0,1,4,13,4,4,0,0,1,8,9Z"/>
    <path fill="currentColor" d="M40,17H60a1,1,0,0,0,.8-.4A5.93,5.93,0,0,0,62,13a6,6,0,0,0-6.08-6A6,6,0,0,0,44.08,7a6,6,0,0,0-4.88,9.6A1,1,0,0,0,40,17Zm4-8a4.82,4.82,0,0,1,.81.08A4,4,0,0,1,48,12.92a1,1,0,0,0,1,1,1,1,0,0,0,1-1v0a6,6,0,0,0-3.94-5.52A4,4,0,0,1,54,8a1,1,0,0,0,.24.8,1,1,0,0,0,.93.32A5.26,5.26,0,0,1,56,9a4,4,0,0,1,4,4,3.94,3.94,0,0,1-.53,2H40.53A3.94,3.94,0,0,1,40,13,4,4,0,0,1,44,9Z"/>
    <path fill="currentColor" d="M26,34a6,6,0,1,0,6-6A6,6,0,0,0,26,34Zm10,0a4,4,0,1,1-4-4A4,4,0,0,1,36,34Z"/>
</svg>
