<?xml version="1.0"?>
<svg xmlns="http://www.w3.org/2000/svg" id="Layer_1" data-name="Layer 1" viewBox="0 0 64 64" width="512" height="512"><path d="M15,33a1,1,0,0,0-1,1v3H5a1,1,0,0,0-1,.73l-2,7a1,1,0,0,0,.16.87A1,1,0,0,0,3,46H61a1,1,0,0,0,.8-.4,1,1,0,0,0,.16-.87l-2-7A1,1,0,0,0,59,37H50V34a1,1,0,0,0-1-1H47V23h1a1,1,0,0,0,.4-1.92L35,15.22V11.28l2.76.69a1,1,0,0,0,.86-.18A1,1,0,0,0,39,11V6a1,1,0,0,0-.38-.79A1,1,0,0,0,37.76,5l-2.39.6L36,3.24a1,1,0,0,0-.18-.86A1,1,0,0,0,35,2H29a1,1,0,0,0-.79.38,1,1,0,0,0-.18.86l.6,2.39L26.24,5A1,1,0,0,0,25,6v5a1,1,0,0,0,.38.79,1,1,0,0,0,.86.18L29,11.28v3.94L15.6,21.08A1,1,0,0,0,16,23h1V33ZM59.67,44H4.33l1.42-5h52.5ZM48,37H16V35H48ZM25,23V33H23V23Zm8,0V33H31V23Zm8,0V33H39V23ZM37,33H35V23h2Zm-8,0H27V23h2Zm16,0H43V23h2ZM30.62,9.21A1,1,0,0,0,29.76,9L27,9.72V7.28L29.76,8A1,1,0,0,0,31,6.76L30.28,4h3.44L33,6.76A1,1,0,0,0,34.24,8L37,7.28V9.72L34.24,9a1,1,0,0,0-.86.18A1,1,0,0,0,33,10v4.35l-.6-.27a1,1,0,0,0-.8,0l-.6.27V10A1,1,0,0,0,30.62,9.21ZM32,16.09,43.22,21H20.78ZM19,23h2V33H19Z"/><path d="M2.08,57.38A1,1,0,0,0,3,58H16.28c3.09,2.46,9,4,15.72,4s12.63-1.54,15.72-4H61a1,1,0,0,0,.92-.62,1,1,0,0,0-.21-1.09L58.41,53l3.3-3.29a1,1,0,0,0,.21-1.09A1,1,0,0,0,61,48H45a1,1,0,0,0-1,1v1.87A31.09,31.09,0,0,1,32,53a31.13,31.13,0,0,1-12-2.13V49a1,1,0,0,0-1-1H3a1,1,0,0,0-.92.62,1,1,0,0,0,.21,1.09L5.59,53l-3.3,3.29A1,1,0,0,0,2.08,57.38Zm54.21-5.09a1,1,0,0,0,0,1.42L58.59,56H49V50h9.59ZM47,51.52V56c-2.39,2.38-8.46,4-15,4s-12.61-1.64-15-4V51.52C20.28,53.7,25.84,55,32,55S43.73,53.7,47,51.52ZM7.71,53.71a1,1,0,0,0,0-1.42L5.41,50H15v6H5.41Z"/></svg>
