<?xml version="1.0"?>
<svg xmlns="http://www.w3.org/2000/svg" id="Layer_1" data-name="Layer 1" viewBox="0 0 64 64" width="512" height="512"><path d="M57.5,28H55.74l.76-3.8a.93.93,0,0,0,0-.44l-.57-2.26,1.39.46a1,1,0,0,0,.32.06,1,1,0,0,0,.89-.55l.37-.71a1,1,0,0,0-.29-1.26l-7.52-5.64a2.89,2.89,0,0,0-.71-.52,3,3,0,0,0-4,1.29,3,3,0,0,0,1.27,4,2.65,2.65,0,0,0,.83.29l5.24,1.77L54.5,24l-.8,4h-5l-2.83-6.81a1,1,0,0,0-.67-.59l-9.3-2.41-.25-1.42a6.7,6.7,0,0,0,2.59-3.92A2,2,0,0,0,39,11.27v-.63a2,2,0,0,0-.6-1.42V8.73A6.58,6.58,0,0,0,32,2a6.58,6.58,0,0,0-6.4,6.73v.49a2,2,0,0,0-.6,1.42v.63a2,2,0,0,0,.79,1.58,6.7,6.7,0,0,0,2.59,3.92l-.25,1.42-9.3,2.41a1,1,0,0,0-.67.59L15.33,28h-5l-.8-4,.83-3.28L15.57,19a2.65,2.65,0,0,0,.83-.29,3,3,0,0,0,1.27-4,3,3,0,0,0-4-1.29,2.89,2.89,0,0,0-.71.52L5.4,19.5a1,1,0,0,0-.29,1.26l.37.71a1,1,0,0,0,.89.55A1,1,0,0,0,6.69,22l1.39-.46-.57,2.26a.93.93,0,0,0,0,.44L8.26,28H6.5A4.49,4.49,0,0,0,5,36.72V55a1,1,0,0,0,1,1H21.72l9.77,5.86a1,1,0,0,0,1,0L42.28,56H58a1,1,0,0,0,1-1V36.72A4.49,4.49,0,0,0,57.5,28ZM51.06,16.34l3.39,2.55-4-1.35Zm-3-.8a1,1,0,0,1,.59-.49.91.91,0,0,1,.74.06h0l-.92,1.79A1,1,0,0,1,48.11,15.54ZM15.3,15.05a1,1,0,0,1,.59.49,1,1,0,0,1-.41,1.36l-.92-1.79h0A.91.91,0,0,1,15.3,15.05Zm-2.36,1.29.62,1.2-4,1.35ZM32,4a4.43,4.43,0,0,1,4.09,3H27.91A4.43,4.43,0,0,1,32,4Zm-5,7.27L27,10.68a1,1,0,0,0,.65-.94V9h8.8v.74a.91.91,0,0,0,.6.9l.06.59a1,1,0,0,0-.73.81A4.54,4.54,0,0,1,32,16a4.54,4.54,0,0,1-4.33-4A.91.91,0,0,0,27,11.27ZM29.25,20a1,1,0,0,0,.73-.79l.27-1.47a5.43,5.43,0,0,0,3.5,0L34,19.18a1,1,0,0,0,.73.79l8.89,2.3C42.35,23.61,38.57,24.85,33,25V23h2V21H33V19H31v2H29v2h2v2c-5.57-.13-9.35-1.37-10.64-2.71ZM19.19,23.91C21.71,26.16,27.33,27,32,27s10.29-.84,12.81-3.09L46.5,28h-29ZM7,37H21V54H7ZM32,59.83l-9-5.4V37H41V54.43ZM43,54V37H57V54ZM57.5,35H6.5a2.5,2.5,0,0,1,0-5h51a2.5,2.5,0,0,1,0,5Z"/><path d="M37.76,41l-2.39.6.6-2.39a1,1,0,0,0-.18-.86A1,1,0,0,0,35,38H29a1,1,0,0,0-.79.38,1,1,0,0,0-.18.86l.6,2.39L26.24,41a1,1,0,0,0-.86.18A1,1,0,0,0,25,42v6a1,1,0,0,0,.38.79,1,1,0,0,0,.86.18l2.59-.65L28,54.88a1,1,0,0,0,.24.78A1,1,0,0,0,29,56h6a1,1,0,0,0,.75-.34,1,1,0,0,0,.24-.78l-.82-6.56,2.59.65a1,1,0,0,0,.86-.18A1,1,0,0,0,39,48V42a1,1,0,0,0-1.24-1ZM37,46.72,34.24,46a1,1,0,0,0-.9.22,1,1,0,0,0-.33.87L33.87,54H30.13L31,47.12a1,1,0,0,0-.33-.87,1,1,0,0,0-.9-.22L27,46.72V43.28l2.76.69A1,1,0,0,0,31,42.76L30.28,40h3.44L33,42.76A1,1,0,0,0,34.24,44L37,43.28Z"/></svg>
