<?xml version="1.0"?>
<svg xmlns="http://www.w3.org/2000/svg" id="Layer_1" data-name="Layer 1" viewBox="0 0 64 64" width="512" height="512"><path d="M9.49,53.64a2.49,2.49,0,0,0-.1,1.93l1.72,4.74A2.59,2.59,0,0,0,13.56,62a2.74,2.74,0,0,0,.84-.14L25.25,58.2a2.53,2.53,0,0,0,1.5-1.31,2.49,2.49,0,0,0,.1-1.93l-1.72-4.75a2.61,2.61,0,0,0-3.28-1.55l-.1,0a29.89,29.89,0,0,0-1.25-5.15,10.86,10.86,0,0,0-2.6-4.09l-3-8.34a3.26,3.26,0,0,0-2.13-2.06l2.1-4.61A3.15,3.15,0,0,0,11,20.17a3,3,0,0,0-1.73,1.55l-3.6,7.22a1.17,1.17,0,0,0-.1.41L5,43.23a1,1,0,0,0,.19.62l6,8.41-.19.06A2.58,2.58,0,0,0,9.49,53.64Zm13-3.08a.76.76,0,0,1,.21,0,.58.58,0,0,1,.56.37L25,55.64A.48.48,0,0,1,25,56a.58.58,0,0,1-.34.29L13.76,60a.61.61,0,0,1-.77-.34l-1.72-4.74a.47.47,0,0,1,0-.38.58.58,0,0,1,.34-.29l1.46-.5h0l8-2.71h0ZM7,43l.51-13.32,3.51-7a1,1,0,0,1,.59-.53,1.12,1.12,0,0,1,.86.05,1.16,1.16,0,0,1,.55,1.5l-2.57,5.67a3,3,0,0,0-.91.71A3.05,3.05,0,0,0,9,33l3,8.24,1.88-.68-3-8.25a1,1,0,0,1,.17-1.05,1.15,1.15,0,0,1,.47-.3A1.18,1.18,0,0,1,13,31.8l3.1,8.56a1.16,1.16,0,0,0,.26.39,9,9,0,0,1,2.26,3.48,25.4,25.4,0,0,1,1.19,5.12l-6.65,2.24Z"/><path d="M59,43.23l-.53-13.88a1.17,1.17,0,0,0-.1-.41l-3.59-7.21A3,3,0,0,0,53,20.17a3.15,3.15,0,0,0-3.89,4.27l2.1,4.62a3.26,3.26,0,0,0-2.13,2.06l-3,8.34a10.86,10.86,0,0,0-2.6,4.09,29.89,29.89,0,0,0-1.25,5.15l-.1,0a2.61,2.61,0,0,0-3.28,1.55L37.15,55a2.49,2.49,0,0,0,.1,1.93,2.53,2.53,0,0,0,1.5,1.31L49.6,61.86a2.74,2.74,0,0,0,.84.14,2.59,2.59,0,0,0,2.45-1.69l1.72-4.74a2.49,2.49,0,0,0-.1-1.93A2.58,2.58,0,0,0,53,52.32l-.19-.06,6-8.41A1,1,0,0,0,59,43.23ZM52.73,54.89,51,59.63a.61.61,0,0,1-.77.34L39.39,56.31a.58.58,0,0,1-.34-.29.48.48,0,0,1,0-.38l1.72-4.74a.58.58,0,0,1,.56-.37.76.76,0,0,1,.21,0l1.34.45h0l8,2.71h0l1.46.5a.58.58,0,0,1,.34.29A.47.47,0,0,1,52.73,54.89Zm-1.89-3.3-6.65-2.24a25.4,25.4,0,0,1,1.19-5.12,9,9,0,0,1,2.26-3.48,1.16,1.16,0,0,0,.26-.39L51,31.8A1.18,1.18,0,0,1,52.47,31a1,1,0,0,1,.64,1.36l-3,8.24,1.88.68L55,33A3.08,3.08,0,0,0,54.44,30a3.25,3.25,0,0,0-.9-.7L51,23.6a1.16,1.16,0,0,1,.55-1.48,1.1,1.1,0,0,1,.87-.06,1,1,0,0,1,.6.55l3.5,7L57,43Z"/><path d="M16.19,28.41a1,1,0,0,0,0,1.18C18.45,32.7,22.87,34.92,28,35.7V40a1,1,0,0,0,1,1h6a1,1,0,0,0,1-1V35.7c5.13-.78,9.55-3,11.81-6.11a1,1,0,0,0,0-1.18C45.55,25.3,41.13,23.08,36,22.3V18h8a1,1,0,0,0,1-1V11a1,1,0,0,0-1-1H36V3a1,1,0,0,0-1-1H29a1,1,0,0,0-1,1v7H20a1,1,0,0,0-1,1v6a1,1,0,0,0,1,1h8v4.3C22.87,23.08,18.45,25.3,16.19,28.41ZM32,33a4,4,0,1,1,4-4A4,4,0,0,1,32,33ZM18.28,29c2.08-2.39,5.76-4.1,10-4.73a6,6,0,0,0,0,9.46C24,33.1,20.36,31.39,18.28,29ZM34,39H30V35.92c.66,0,1.33.08,2,.08s1.34,0,2-.08ZM45.72,29c-2.08,2.39-5.76,4.1-10,4.73a6,6,0,0,0,0-9.46C40,24.9,43.64,26.61,45.72,29ZM29,16H21V12h8a1,1,0,0,0,1-1V4h4v7a1,1,0,0,0,1,1h8v4H35a1,1,0,0,0-1,1v5.08c-.66,0-1.33-.08-2-.08s-1.34,0-2,.08V17A1,1,0,0,0,29,16Z"/><path d="M32,26a3,3,0,1,0,3,3A3,3,0,0,0,32,26Zm0,4a1,1,0,1,1,1-1A1,1,0,0,1,32,30Z"/></svg>
