<svg id="Layer_1" height="512" viewBox="0 0 64 64" width="512" xmlns="http://www.w3.org/2000/svg" data-name="Layer 1"><path d="m21.5 46.13-7-4a1 1 0 0 0 -1 0l-7 4a1 1 0 0 0 -.49 1l2 14a1 1 0 0 0 .99.87h45a1 1 0 0 0 1-1c0-5.63-4.3-10.42-10.28-12.23l3-13.62 7.82 1.71a1 1 0 0 0 .75-.14 1 1 0 0 0 .44-.63l1.27-5.87a1 1 0 0 0 -.14-.75 1 1 0 0 0 -.63-.44l-7.81-1.7 1.49-6.84a1 1 0 0 0 -.77-1.19l-5.88-1.3a1 1 0 0 0 -1.19.77l-1.49 6.84-7.82-1.71a1 1 0 0 0 -.75.14 1 1 0 0 0 -.44.63l-1.28 5.86a1 1 0 0 0 .14.75 1 1 0 0 0 .63.44l7.82 1.7-3.23 14.81a15.57 15.57 0 0 0 -10.86 6.68 9.61 9.61 0 0 0 -2.79-.41 10.24 10.24 0 0 0 -2.1.23l1.1-7.59a1 1 0 0 0 -.5-1.01zm20.55-13.24a1 1 0 0 0 -.14-.75 1 1 0 0 0 -.63-.44l-7.82-1.7.85-3.91 7.82 1.71a1 1 0 0 0 1.19-.8l1.49-6.84 3.91.85-1.49 6.85a1 1 0 0 0 .14.75 1 1 0 0 0 .63.44l7.81 1.69-.81 3.95-7.86-1.69a1 1 0 0 0 -1.19.77l-3.18 14.53a18.41 18.41 0 0 0 -3.27-.3h-.76zm-2.55 17.11c7 0 12.82 4.4 13.44 10h-26.88a9.29 9.29 0 0 1 1.06-3.4c2.15-4.01 7.01-6.6 12.38-6.6zm-14.64 6.73a11.35 11.35 0 0 0 -.8 3.27h-6.91c.61-2 3-3.5 5.85-3.5a7.64 7.64 0 0 1 1.86.23zm-9.76 3.27h-5.23l-1.78-12.47 5.91-3.38 5.91 3.38-1.13 8a6.64 6.64 0 0 0 -3.68 4.47z"/><path d="m10 48h3v2h-3z"/><path d="m15 48h3v2h-3z"/><path d="m11 52h6v2h-6z"/><path d="m13 56h2v2h-2z"/><path d="m56 7h-.08a6 6 0 0 0 -11.83 0h-.09a6 6 0 0 0 -3.85 1.4 6.13 6.13 0 0 0 -2.15-.4h-.08a6 6 0 0 0 -11.84 0h-.08a6.13 6.13 0 0 0 -2.15.4 5.71 5.71 0 0 0 -3.93-1.4 6 6 0 0 0 -11.83 0h-.09a6 6 0 0 0 -6 6 5.93 5.93 0 0 0 1.2 3.6 1 1 0 0 0 .8.4h16.82a6.1 6.1 0 0 0 .38.6 1 1 0 0 0 .8.4h20a1 1 0 0 0 .8-.4 6.1 6.1 0 0 0 .38-.6h16.82a1 1 0 0 0 .8-.4 5.93 5.93 0 0 0 1.2-3.6 6 6 0 0 0 -6-6zm-36 7a6.63 6.63 0 0 0 .08 1h-15.55a3.94 3.94 0 0 1 -.53-2 4 4 0 0 1 4-4 4.82 4.82 0 0 1 .81.08 4 4 0 0 1 3.19 3.84h2a5.89 5.89 0 0 0 -1.73-4.11 6 6 0 0 0 -2.2-1.42 4 4 0 0 1 7.93.61 1 1 0 0 0 .23.79 1 1 0 0 0 .94.33 5.26 5.26 0 0 1 .83-.12 4 4 0 0 1 2 .55 6 6 0 0 0 -2 4.45zm21.47 2h-18.94a3.94 3.94 0 0 1 -.53-2 4 4 0 0 1 4-4 4.82 4.82 0 0 1 .81.08 4 4 0 0 1 3.19 3.84 1 1 0 0 0 1 1 1 1 0 0 0 1-1 6 6 0 0 0 -3.94-5.52 4 4 0 0 1 7.94.6 1 1 0 0 0 1.17 1.12 5.26 5.26 0 0 1 .83-.12 4 4 0 0 1 4 4 3.94 3.94 0 0 1 -.53 2zm18-1h-15.55a6.63 6.63 0 0 0 .08-1 6 6 0 0 0 -2-4.45 4 4 0 0 1 2-.55 4.82 4.82 0 0 1 .81.08 4 4 0 0 1 3.19 3.84h2a5.89 5.89 0 0 0 -1.73-4.11 6 6 0 0 0 -2.2-1.42 4 4 0 0 1 7.93.61 1 1 0 0 0 .23.79 1 1 0 0 0 .94.33 5.26 5.26 0 0 1 .83-.12 4 4 0 0 1 4 4 3.94 3.94 0 0 1 -.53 2z"/></svg>