<?xml version="1.0"?>
<svg xmlns="http://www.w3.org/2000/svg" id="Layer_1" data-name="Layer 1" viewBox="0 0 64 64" width="512" height="512"><path d="M61.92,45.62A1,1,0,0,0,61,45H45a1,1,0,0,0-1,1v4.1C40.74,51.39,35.77,53,32,53s-8.74-1.61-12-2.9V46a1,1,0,0,0-1-1H3a1,1,0,0,0-.92.62,1,1,0,0,0,.21,1.09L5.59,50l-3.3,3.29a1,1,0,0,0-.21,1.09A1,1,0,0,0,3,55H15v1.37a1,1,0,0,0,.25.66c2.63,3,9.2,5,16.75,5s14.13-2,16.75-5a1,1,0,0,0,.25-.66V55H61a1,1,0,0,0,.92-.62,1,1,0,0,0-.21-1.09L58.41,50l3.3-3.29A1,1,0,0,0,61.92,45.62ZM15.65,48.43a1,1,0,0,0-.65.94V53H5.41l2.3-2.29a1,1,0,0,0,0-1.42L5.41,47H18v2.27a14.49,14.49,0,0,1-1.34-.65A1,1,0,0,0,15.65,48.43ZM47,56c-2.39,2.38-8.46,4-15,4s-12.61-1.64-15-4V51c3.24,1.52,10.16,4,15,4s11.76-2.45,15-4Zm9.29-6.69a1,1,0,0,0,0,1.42L58.59,53H49V49.37a1,1,0,0,0-1.66-.75,14.49,14.49,0,0,1-1.34.65V47H58.59Z"/><path d="M2,27.9a3.52,3.52,0,0,0,1.87,2.88L3,41.92a1,1,0,0,0,.26.76A1,1,0,0,0,4,43H18.35a1,1,0,0,0,1-1.08l-.21-2.73,3.23.36h.11a1,1,0,0,0,.66-.24,1,1,0,0,0,.34-.73l.34-11.16A3.49,3.49,0,0,0,26,24.75c.29-2.63-3.43-5.05-8.63-5.63-3.51-.39-6.73.2-8.4,1.54a3.1,3.1,0,0,0-1.23,2.09,2.72,2.72,0,0,0,0,.8C4.33,24.21,2,25.86,2,27.9ZM9.71,23a1.15,1.15,0,0,1,.49-.74c1-.82,3.57-1.49,6.92-1.11,4.37.48,7,2.35,6.88,3.43-.05.46-.62.94-1.52,1.3a1,1,0,0,0-.64.9l-.32,10.7L19,37.16l-.49-6.38a3.52,3.52,0,0,0,1.87-2.88c0-2.66-3.95-4.66-9.18-4.66-.49,0-1,0-1.43.05A.64.64,0,0,1,9.71,23Zm1.48,2.28c4.38,0,7.18,1.57,7.18,2.66,0,.46-.51,1-1.37,1.45a1,1,0,0,0-.54,1L17.27,41H5.1l.81-10.69a1,1,0,0,0-.53-1C4.51,28.9,4,28.35,4,27.9,4,26.81,6.8,25.24,11.19,25.24Z"/><path d="M10.16,32.13a2.57,2.57,0,1,0-2.53-2.56A2.55,2.55,0,0,0,10.16,32.13Zm0-3.13a.57.57,0,1,1-.53.57A.55.55,0,0,1,10.16,29Z"/><path d="M9.68,36a2.54,2.54,0,1,0,2.53-2.57A2.55,2.55,0,0,0,9.68,36Zm3.07,0a.54.54,0,1,1-.54-.57A.56.56,0,0,1,12.75,36Z"/><path d="M61,23H59V16a1,1,0,0,0-1-1H54a1,1,0,0,0-1,1v7H51a1,1,0,0,0-1,1v0a17.57,17.57,0,0,0-5-.67c-1.17,0-7,.13-7,2.64a1.64,1.64,0,0,0,.72,1.31l1.19,5.09a.85.85,0,0,0,.23.45l1.65,1.81a1.72,1.72,0,0,0,0,.39c0,1,.92,1.83,2.25,2.11v1.45c-1.8.23-3,1-3,2.16C41,42.08,42.65,43,45,43s4-.92,4-2.23c0-1.11-1.2-1.93-3-2.16V37.16c1.33-.28,2.25-1.09,2.25-2.11a1.72,1.72,0,0,0,0-.39l1.65-1.81a1.43,1.43,0,0,0,.14-.2v7C50,41.55,52.58,43,56,43s6-1.45,6-3.37V24A1,1,0,0,0,61,23Zm-4-6v2H55V17Zm-5,8h2a1,1,0,0,0,1-1V21h2v3a1,1,0,0,0,1,1h2v8.66a5.74,5.74,0,0,1-2.63,1.92A5,5,0,0,1,52,34.64Zm-7,.36a13.74,13.74,0,0,1,4.58.64,13.74,13.74,0,0,1-4.58.64A13.74,13.74,0,0,1,40.42,26,13.74,13.74,0,0,1,45,25.36Zm0,3.28a20.37,20.37,0,0,0,4-.4L48.6,30H41.4L41,28.24A20.37,20.37,0,0,0,45,28.64ZM45,41a5,5,0,0,1-1.59-.23,5.86,5.86,0,0,1,3.18,0A5,5,0,0,1,45,41Zm1.27-7.18A1,1,0,0,0,46.16,35a2.43,2.43,0,0,1-1.16.26A2.35,2.35,0,0,1,43.85,35a1,1,0,0,0-.12-1.19L42.07,32h5.86ZM56,41c-2.6,0-4-1-4-1.37V37.14a7,7,0,0,0,3.32.81,8,8,0,0,0,2.74-.49,8.21,8.21,0,0,0,1.94-1v3.21C60,40,58.6,41,56,41Z"/><path d="M34,2H30a1,1,0,0,0-1,1V9H22a1,1,0,0,0-1,1v4a1,1,0,0,0,1,1h7V35H28a1,1,0,0,0-1,1v2H26a1,1,0,0,0-1,1v3a1,1,0,0,0,1,1H38a1,1,0,0,0,1-1V39a1,1,0,0,0-1-1H37V36a1,1,0,0,0-1-1H35V15h7a1,1,0,0,0,1-1V10a1,1,0,0,0-1-1H35V3A1,1,0,0,0,34,2Zm3,39H27V40H37Zm-8-3V37h6v1ZM41,11v2H34a1,1,0,0,0-1,1V35H31V14a1,1,0,0,0-1-1H23V11h7a1,1,0,0,0,1-1V4h2v6a1,1,0,0,0,1,1Z"/></svg>
