<svg id="Layer_1" height="512" viewBox="0 0 64 64" width="512" xmlns="http://www.w3.org/2000/svg" data-name="Layer 1"><path d="m59.48 46h-5a2.52 2.52 0 0 0 -2.48 2.52 29.69 29.69 0 0 0 -5.16-.52 10.81 10.81 0 0 0 -4.63 1h-8.73a3.21 3.21 0 0 0 -2.6 1.25l-3.64-3.39a3.17 3.17 0 0 0 -4.33 0 3 3 0 0 0 0 4.26l5.61 5.59a1 1 0 0 0 .34.22l12.78 5a.94.94 0 0 0 .36.07.75.75 0 0 0 .26 0l9.74-2.69v.17a2.52 2.52 0 0 0 2.52 2.52h5a2.52 2.52 0 0 0 2.48-2.52v-11a2.52 2.52 0 0 0 -2.52-2.48zm-17.43 14-12.27-4.86-5.48-5.45a1 1 0 0 1 0-1.39 1.17 1.17 0 0 1 1.57 0l4.47 4.16a2.82 2.82 0 0 0 .38 1.06 3.09 3.09 0 0 0 2.65 1.48h8.63v-2h-8.63a1.1 1.1 0 0 1 -.94-.51 1 1 0 0 1 -.13-.49 1.08 1.08 0 0 1 1.18-1h9a1 1 0 0 0 .45-.11 8.85 8.85 0 0 1 4-.89 25.75 25.75 0 0 1 5.16.59v6.65zm18-.47a.52.52 0 0 1 -.52.52h-5a.52.52 0 0 1 -.52-.52v-11a.52.52 0 0 1 .52-.52h5a.52.52 0 0 1 .52.52z"/><path d="m4.52 18h5a2.52 2.52 0 0 0 2.48-2.52 29.69 29.69 0 0 0 5.16.54 10.81 10.81 0 0 0 4.63-1h8.73a3.21 3.21 0 0 0 2.6-1.25l3.64 3.39a3.18 3.18 0 0 0 4.33 0 3 3 0 0 0 0-4.26l-5.6-5.61a1 1 0 0 0 -.34-.22l-12.78-5a1 1 0 0 0 -.63 0l-9.74 2.62v-.17a2.52 2.52 0 0 0 -2.52-2.52h-5a2.52 2.52 0 0 0 -2.48 2.52v11a2.52 2.52 0 0 0 2.52 2.48zm17.48-13.95 12.22 4.81 5.48 5.45a1 1 0 0 1 0 1.39 1.17 1.17 0 0 1 -1.57 0l-4.47-4.16a2.82 2.82 0 0 0 -.38-1.06 3.09 3.09 0 0 0 -2.65-1.48h-8.63v2h8.63a1.1 1.1 0 0 1 .94.51 1 1 0 0 1 .13.49 1.08 1.08 0 0 1 -1.18 1h-9a1 1 0 0 0 -.45.11 8.85 8.85 0 0 1 -3.95.89 25.75 25.75 0 0 1 -5.12-.59v-6.65zm-18 .47a.52.52 0 0 1 .52-.52h5a.52.52 0 0 1 .52.52v11a.52.52 0 0 1 -.52.52h-5a.52.52 0 0 1 -.52-.56z"/><path d="m52.05 24.69a20.83 20.83 0 0 1 -2.87 5.71 25.25 25.25 0 0 0 -19.07-8.4 25.21 25.21 0 0 0 -19.89 9.38 1 1 0 0 0 0 1.24 25.21 25.21 0 0 0 19.89 9.38 25.29 25.29 0 0 0 19.07-8.4 20.83 20.83 0 0 1 2.87 5.71l1.9-.62a22.68 22.68 0 0 0 -3.47-6.69 22.68 22.68 0 0 0 3.52-6.69zm-21.94 15.31a23.28 23.28 0 0 1 -17.81-8 23.28 23.28 0 0 1 17.81-8 23.25 23.25 0 0 1 17.81 8 23.28 23.28 0 0 1 -17.81 8z"/><path d="m31 26h-2v3h-4v2h4v7h2v-7h4v-2h-4z"/></svg>