<?xml version="1.0"?>
<svg xmlns="http://www.w3.org/2000/svg" id="Layer_1" data-name="Layer 1" viewBox="0 0 64 64" width="512" height="512"><path d="M57.5,28H55.74l.76-3.8a.93.93,0,0,0,0-.44l-.57-2.26,1.39.46a1,1,0,0,0,.32.06,1,1,0,0,0,.89-.55l.37-.71a1,1,0,0,0-.29-1.26l-7.52-5.64a2.89,2.89,0,0,0-.71-.52,3,3,0,0,0-4,1.29,3,3,0,0,0,1.27,4,2.65,2.65,0,0,0,.83.29l5.24,1.77L54.5,24l-.8,4h-5l-2.83-6.81a1,1,0,0,0-.64-.58l-1.46-.42L39.15,9.6C39.05,5.39,35.88,2,32,2s-7,3.39-7.15,7.6L20.26,20.19l-1.46.42a1,1,0,0,0-.64.58L15.33,28h-5l-.8-4,.83-3.28L15.57,19a2.65,2.65,0,0,0,.83-.29,3,3,0,0,0,1.27-4,3,3,0,0,0-4-1.29,2.89,2.89,0,0,0-.71.52L5.4,19.5a1,1,0,0,0-.29,1.26l.37.71a1,1,0,0,0,.89.55A1,1,0,0,0,6.69,22l1.39-.46-.57,2.26a.93.93,0,0,0,0,.44L8.26,28H6.5A4.49,4.49,0,0,0,5,36.72V55a1,1,0,0,0,1,1H21.72l9.77,5.86a1,1,0,0,0,1,0L42.28,56H58a1,1,0,0,0,1-1V36.72A4.49,4.49,0,0,0,57.5,28ZM51.06,16.34l3.39,2.55-4-1.35Zm-3-.8a1,1,0,0,1,.59-.49.91.91,0,0,1,.74.06h0l-.92,1.79A1,1,0,0,1,48.11,15.54ZM15.3,15.05a1,1,0,0,1,.59.49,1,1,0,0,1-.41,1.36l-.92-1.79h0A.91.91,0,0,1,15.3,15.05Zm-2.36,1.29.62,1.2-4,1.35ZM33,23h2V21H33V19H31v2H29v2h2v2c-4.07-.15-7.92-1.23-10.26-2.85L28.28,20a1,1,0,0,0,.67-.64l.56-1.7a8.35,8.35,0,0,0,5,0l.56,1.7a1,1,0,0,0,.67.64l7.54,2.17C40.92,23.75,37.07,24.83,33,25Zm1.48-7.51a6.26,6.26,0,0,1-4.95,0,6.54,6.54,0,0,1-.59-.3l.9-5.19h4.32l.9,5.19A6.36,6.36,0,0,1,34.48,15.49Zm-7.72-5.28a.93.93,0,0,0,.09-.4C26.85,6.61,29.16,4,32,4s5.15,2.61,5.15,5.81a.93.93,0,0,0,.09.4l4,9.26-4.47-1.29-.47-1.42c.13-.08.26-.15.38-.24a1,1,0,0,0,.47-.85,1.23,1.23,0,0,0,0-.2L36,8.83A1,1,0,0,0,35,8H29a1,1,0,0,0-1,.83L26.86,15.5a1.1,1.1,0,0,0,0,.18,1,1,0,0,0,.49.86l.36.22-.47,1.42-4.47,1.29ZM19.33,23.58C22.2,25.68,27,27,32,27s9.8-1.32,12.67-3.42L46.5,28h-29ZM7,37H21V54H7ZM32,59.83l-9-5.4V37H41V54.43ZM43,54V37H57V54ZM57.5,35H6.5a2.5,2.5,0,0,1,0-5h51a2.5,2.5,0,0,1,0,5Z"/><path d="M37.76,41l-2.39.6.6-2.39a1,1,0,0,0-.18-.86A1,1,0,0,0,35,38H29a1,1,0,0,0-.79.38,1,1,0,0,0-.18.86l.6,2.39L26.24,41A1,1,0,0,0,25,42v6a1,1,0,0,0,.38.79,1,1,0,0,0,.86.18l2.59-.65L28,54.88a1,1,0,0,0,.24.78A1,1,0,0,0,29,56h6a1,1,0,0,0,.75-.34,1,1,0,0,0,.24-.78l-.82-6.56,2.59.65a1,1,0,0,0,.86-.18A1,1,0,0,0,39,48V42a1,1,0,0,0-.38-.79A1,1,0,0,0,37.76,41ZM37,46.72,34.24,46a1,1,0,0,0-.9.22,1,1,0,0,0-.33.87L33.87,54H30.13L31,47.12a1,1,0,0,0-.33-.87,1,1,0,0,0-.9-.22L27,46.72V43.28l2.76.69A1,1,0,0,0,31,42.76L30.28,40h3.44L33,42.76A1,1,0,0,0,34.24,44L37,43.28Z"/></svg>
