<svg id="Layer_1" height="512" viewBox="0 0 64 64" width="512" xmlns="http://www.w3.org/2000/svg" data-name="Layer 1"><path d="m59 41a3 3 0 0 0 -3 3v1h-48v-12a3 3 0 0 0 -6 0v26a3 3 0 0 0 6 0v-1h48v1a3 3 0 0 0 6 0v-15a3 3 0 0 0 -3-3zm-53 18a1 1 0 0 1 -2 0v-26a1 1 0 0 1 2 0zm2-3v-9h48v9zm52 3a1 1 0 0 1 -2 0v-15a1 1 0 0 1 2 0z"/><path d="m18 40a4 4 0 1 0 -4 4 4 4 0 0 0 4-4zm-6 0a2 2 0 1 1 2 2 2 2 0 0 1 -2-2z"/><path d="m52.07 43a3 3 0 0 0 3-3 3 3 0 0 0 -3-3h-29.07a3 3 0 0 0 0 6zm-30.07-3a1 1 0 0 1 1-1h29.07a1 1 0 0 1 1 1 1.05 1.05 0 0 1 -1 1h-29.07a1 1 0 0 1 -1-1z"/><path d="m58.77 2h-53.54a3.23 3.23 0 0 0 -3.23 3.23v19.54a3.23 3.23 0 0 0 3.23 3.23h53.54a3.23 3.23 0 0 0 3.23-3.23v-19.54a3.23 3.23 0 0 0 -3.23-3.23zm1.23 22.77a1.23 1.23 0 0 1 -1.23 1.23h-53.54a1.23 1.23 0 0 1 -1.23-1.23v-19.54a1.23 1.23 0 0 1 1.23-1.23h53.54a1.23 1.23 0 0 1 1.23 1.23z"/><path d="m19.53 19.26 1.47-7.06a1 1 0 0 0 -.34-1l-6-5a1 1 0 0 0 -1.28 0l-6 5a1 1 0 0 0 -.34 1l1.45 7.06a4.34 4.34 0 0 0 -2.49 3.74 1 1 0 0 0 1 1h14a1 1 0 0 0 1-1 4.34 4.34 0 0 0 -2.47-3.74zm-10.43-6.87 4.9-4.09 4.9 4.09-1.25 6.09a13.17 13.17 0 0 0 -3.65-.48 13.17 13.17 0 0 0 -3.65.48zm-.78 9.61c.78-1.19 3-2 5.68-2s4.9.81 5.68 2z"/><path d="m15 14h2v-2h-2v-2h-2v2h-2v2h2v4h1 1z"/><path d="m58 15v-4a1 1 0 0 0 -1-1h-3v-3a1 1 0 0 0 -1-1h-4a1 1 0 0 0 -1 1v3h-3a1 1 0 0 0 -1 1v4a1 1 0 0 0 1 1h3v7a1 1 0 0 0 1 1h4a1 1 0 0 0 1-1v-7h3a1 1 0 0 0 1-1zm-2-1h-3a1 1 0 0 0 -1 1v7h-2v-7a1 1 0 0 0 -1-1h-3v-2h3a1 1 0 0 0 1-1v-3h2v3a1 1 0 0 0 1 1h3z"/><path d="m36.85 13c-.6-1.83-2.79-3-4.85-3a4.57 4.57 0 0 0 -4.5 3.08 4.37 4.37 0 0 0 -4.5 4.07 3.8 3.8 0 0 0 1 2.52 1 1 0 0 0 .75.33h14.52a1 1 0 0 0 .75-.33 3.8 3.8 0 0 0 1-2.52 4.11 4.11 0 0 0 -4.17-4.15zm1.92 5h-13.54a1.69 1.69 0 0 1 -.23-.85 2.41 2.41 0 0 1 2.64-2.07 4.92 4.92 0 0 1 .56 0 1.94 1.94 0 0 1 1.8 1.92h2a3.81 3.81 0 0 0 -2.5-3.56 2.67 2.67 0 0 1 2.5-1.44c1.52 0 3 .94 3 1.95a1 1 0 0 0 .22.74 1 1 0 0 0 .92.36 3.79 3.79 0 0 1 .58-.05 2.12 2.12 0 0 1 2.28 2.15 1.69 1.69 0 0 1 -.23.85z"/><path d="m55.59 6h2.83v2h-2.83z" transform="matrix(.707 -.707 .707 .707 11.75 42.36)"/><path d="m44 5.59h2v2.83h-2z" transform="matrix(.707 -.707 .707 .707 8.23 33.87)"/><path d="m56 17.59h2v2.83h-2z" transform="matrix(.707 -.707 .707 .707 3.26 45.87)"/><path d="m43.59 18h2.83v2h-2.83z" transform="matrix(.707 -.707 .707 .707 -.25 37.38)"/></svg>