<svg id="Layer_1" height="512" viewBox="0 0 64 64" width="512" xmlns="http://www.w3.org/2000/svg" data-name="Layer 1"><path d="m59 32h-10.88l-2.47-.62a2.91 2.91 0 0 0 .35-1.38v-2a3 3 0 0 0 -3-3h-22a3 3 0 0 0 -3 3v2a3 3 0 0 0 .35 1.38l-2.47.62h-10.88a3 3 0 0 0 -2 5.22v23.78a1 1 0 0 0 1 1h56a1 1 0 0 0 1-1v-23.78a3 3 0 0 0 -2-5.22zm1 3a1 1 0 0 1 -1 1h-11a1 1 0 0 1 0-2h11a1 1 0 0 1 1 1zm-16-7v2a1 1 0 0 1 -1 1h-1v-4h1a1 1 0 0 1 1 1zm-6 3v-4h2v4zm-2 0h-3v-4h3zm-5 0h-3v-4h3zm-5 0h-2v-4h2zm-3 2h18v18.43l-9 5.4-9-5.4zm-3-5a1 1 0 0 1 1-1h1v4h-1a1 1 0 0 1 -1-1zm-15 6h11a1 1 0 0 1 0 2h-11a1 1 0 0 1 0-2zm10 4v7.59l-5 2.31-5-2.31v-7.59zm-10 22v-12.21l4.58 2.12a1 1 0 0 0 .84 0l6-2.77a1 1 0 0 0 .58-.91v-8.41a3 3 0 0 0 1.53-4.42l1.71-.4v-.09a2.89 2.89 0 0 0 .76.09v19a1 1 0 0 0 .49.86l10 6a1 1 0 0 0 1 0l10-6a1 1 0 0 0 .51-.86v-19a2.89 2.89 0 0 0 .78-.12v.09l1.71.43a3 3 0 0 0 1.51 4.42v8.41a1 1 0 0 0 .58.91l6 2.77a1 1 0 0 0 .84 0l4.58-2.12v12.21zm54-14.41-5 2.31-5-2.31v-7.59h10z"/><path d="m35.75 52.66a1 1 0 0 0 .24-.78l-.82-6.56 2.59.65a1 1 0 0 0 .86-.18 1 1 0 0 0 .38-.79v-6a1 1 0 0 0 -1.24-1l-2.39.6.6-2.39a1 1 0 0 0 -.18-.86 1 1 0 0 0 -.79-.35h-6a1 1 0 0 0 -.79.38 1 1 0 0 0 -.18.86l.6 2.39-2.39-.63a1 1 0 0 0 -.86.18 1 1 0 0 0 -.38.82v6a1 1 0 0 0 .38.79 1 1 0 0 0 .86.18l2.59-.65-.83 6.56a1 1 0 0 0 .24.78 1 1 0 0 0 .76.34h6a1 1 0 0 0 .75-.34zm-2.41-9.41a1 1 0 0 0 -.33.87l.86 6.88h-3.74l.87-6.88a1 1 0 0 0 -.33-.87 1 1 0 0 0 -.9-.22l-2.77.69v-3.44l2.76.69a1 1 0 0 0 1.24-1.21l-.72-2.76h3.44l-.72 2.76a1 1 0 0 0 1.24 1.24l2.76-.72v3.44l-2.76-.72a1 1 0 0 0 -.9.25z"/><path d="m9 46h2v-3h2v-2h-2v-2h-2v2h-2v2h2z"/><path d="m51 43h2v3h2v-3h2v-2h-2v-2h-2v2h-2z"/><path d="m26 13.94a1 1 0 0 0 -.59-.51l-4.41-1.43a3 3 0 1 0 -3 3 2.89 2.89 0 0 0 1-.19l5.15 7.74a1 1 0 0 0 .85.45h14a1 1 0 0 0 .83-.45l5.17-7.74a2.89 2.89 0 0 0 1 .19 3 3 0 1 0 -3-3l-4.41 1.45a1 1 0 0 0 -.59.51 1 1 0 0 0 0 .79.68.68 0 0 1 0 .25 1 1 0 0 1 -2 0 1 1 0 0 1 .5-.87 1 1 0 0 0 .36-1.36l-3.11-5.35a3 3 0 1 0 -3.5 0l-3.11 5.35a1 1 0 0 0 .36 1.36 1 1 0 0 1 .5.87 1 1 0 0 1 -2 0 .68.68 0 0 1 0-.27 1 1 0 0 0 0-.79zm-9-1.94a1 1 0 1 1 1 1 1 1 0 0 1 -1-1zm29-1a1 1 0 1 1 -1 1 1 1 0 0 1 1-1zm-14-7a1 1 0 1 1 -1 1 1 1 0 0 1 1-1zm-5 14a3 3 0 0 0 2.28-4.95l2.72-4.66 2.72 4.66a3 3 0 1 0 5.28 2l3.07-1-4.61 6.95h-12.92l-4.61-6.93 3.07 1a3 3 0 0 0 3 2.93z"/></svg>