<?xml version="1.0"?>
<svg xmlns="http://www.w3.org/2000/svg" id="Layer_1" data-name="Layer 1" viewBox="0 0 64 64" width="512" height="512">
    <path fill="currentColor" d="M9.92,8.61a1,1,0,0,0-1.84,0l-1.6,3.73v0a4.3,4.3,0,0,0-.47,2C6,16.39,7.32,18,9,18s3-1.61,3-3.67a4.3,4.3,0,0,0-.47-2v0ZM9,16c-.47,0-1-.71-1-1.67a2.14,2.14,0,0,1,.28-1.1A1.08,1.08,0,0,0,8.36,13L9,11.54,9.64,13a1.19,1.19,0,0,0,.08.2,2.14,2.14,0,0,1,.28,1.1C10,15.29,9.47,16,9,16Z"/>
    <path fill="currentColor" d="M55.92,8.61a1,1,0,0,0-1.84,0l-1.6,3.73v0a4.3,4.3,0,0,0-.47,2C52,16.39,53.32,18,55,18s3-1.61,3-3.67a4.3,4.3,0,0,0-.47-2v0ZM55,16c-.47,0-1-.71-1-1.67a2.14,2.14,0,0,1,.28-1.1,1.08,1.08,0,0,0,.08-.19l.64-1.5L55.64,13a1.19,1.19,0,0,0,.08.2,2.14,2.14,0,0,1,.28,1.1C56,15.29,55.47,16,55,16Z"/>
    <path fill="currentColor" d="M36,42a4,4,0,1,0-4,4A4,4,0,0,0,36,42Zm-6,0a2,2,0,1,1,2,2A2,2,0,0,1,30,42Z"/>
    <path fill="currentColor" d="M34.51,47.36a1,1,0,0,0-.84.13,3,3,0,0,1-3.34,0,1,1,0,0,0-.84-.13A9.05,9.05,0,0,0,23,56v5a1,1,0,0,0,1,1H40a1,1,0,0,0,1-1V56a9,9,0,0,0-2.64-6.36A9.12,9.12,0,0,0,34.51,47.36ZM39,60H25V56a7,7,0,0,1,4.65-6.59,5.07,5.07,0,0,0,4.7,0A7.05,7.05,0,0,1,39,56Z"/>
    <path fill="currentColor" d="M57,42a4,4,0,1,0-4,4A4,4,0,0,0,57,42Zm-6,0a2,2,0,1,1,2,2A2,2,0,0,1,51,42Z"/>
    <path fill="currentColor" d="M55.51,47.36a1,1,0,0,0-.84.13,3,3,0,0,1-3.34,0,1,1,0,0,0-.84-.13A9.05,9.05,0,0,0,44,56v5a1,1,0,0,0,1,1H61a1,1,0,0,0,1-1V56a9,9,0,0,0-2.64-6.36A9.12,9.12,0,0,0,55.51,47.36ZM60,60H46V56a7,7,0,0,1,4.65-6.59,5.07,5.07,0,0,0,4.7,0A7.05,7.05,0,0,1,60,56Z"/>
    <path fill="currentColor" d="M15,42a4,4,0,1,0-4,4A4,4,0,0,0,15,42ZM9,42a2,2,0,1,1,2,2A2,2,0,0,1,9,42Z"/>
    <path fill="currentColor" d="M13.51,47.36a1,1,0,0,0-.84.13,3,3,0,0,1-3.34,0,1,1,0,0,0-.84-.13A9.05,9.05,0,0,0,2,56v5a1,1,0,0,0,1,1H19a1,1,0,0,0,1-1V56a9,9,0,0,0-2.64-6.36A9.12,9.12,0,0,0,13.51,47.36ZM18,60H4V56a7,7,0,0,1,4.65-6.59,5.07,5.07,0,0,0,4.7,0A7.05,7.05,0,0,1,18,56Z"/>
    <path fill="currentColor" d="M61,28H59V20a1,1,0,0,0-.35-.76,1,1,0,0,0-.81-.23l-6,1A1,1,0,0,0,51,21v7H48.67l-2.83-6.81a1,1,0,0,0-.67-.59l-9.3-2.41-.25-1.42a6.7,6.7,0,0,0,2.59-3.92A2,2,0,0,0,39,11.27v-.63a2,2,0,0,0-.6-1.42V8.73A6.58,6.58,0,0,0,32,2a6.58,6.58,0,0,0-6.4,6.73v.49a2,2,0,0,0-.6,1.42v.63a2,2,0,0,0,.79,1.58,6.7,6.7,0,0,0,2.59,3.92l-.25,1.42-9.3,2.41a1,1,0,0,0-.67.59L15.33,28H13V21a1,1,0,0,0-.84-1l-6-1a1,1,0,0,0-.81.23A1,1,0,0,0,5,20v8H3a1,1,0,0,0-1,1v4a1,1,0,0,0,1,1H7v1a1,1,0,0,0,1,1H56a1,1,0,0,0,1-1V34h4a1,1,0,0,0,1-1V29A1,1,0,0,0,61,28Zm-8-6.15,4-.67V28H53ZM32,4a4.43,4.43,0,0,1,4.09,3H27.91A4.43,4.43,0,0,1,32,4Zm-5,7.27L27,10.68a1,1,0,0,0,.65-.94V9h8.8v.74a.91.91,0,0,0,.6.9l.06.59a1,1,0,0,0-.73.81A4.54,4.54,0,0,1,32,16a4.54,4.54,0,0,1-4.33-4A.91.91,0,0,0,27,11.27ZM29.25,20a1,1,0,0,0,.73-.79l.27-1.47a5.43,5.43,0,0,0,3.5,0L34,19.18a1,1,0,0,0,.73.79l8.89,2.3C42.35,23.61,38.57,24.85,33,25V23h2V21H33V19H31v2H29v2h2v2c-5.57-.13-9.35-1.37-10.64-2.71ZM19.19,23.91C21.71,26.16,27.33,27,32,27s10.29-.84,12.81-3.09L46.5,28h-29ZM7,21.18l4,.67V28H7ZM60,32H56a1,1,0,0,0-1,1v1H9V33a1,1,0,0,0-1-1H4V30H60Z"/>
</svg>
