<svg id="Layer_1" height="512" viewBox="0 0 64 64" width="512" xmlns="http://www.w3.org/2000/svg" data-name="Layer 1"><path d="m44.48 52h-.17l2.69-9.74a1 1 0 0 0 0-.63l-5-12.78a1 1 0 0 0 -.22-.34l-5.58-5.6a2.94 2.94 0 0 0 -2.2-.91 3 3 0 0 0 -2 .79 3 3 0 0 0 -2-.79 2.93 2.93 0 0 0 -2.12.9l-5.59 5.61a1 1 0 0 0 -.22.34l-5 12.78a1 1 0 0 0 0 .63l2.62 9.74h-.17a2.52 2.52 0 0 0 -2.52 2.52v5a2.52 2.52 0 0 0 2.52 2.48h11a2.51 2.51 0 0 0 1.48-.52 2.51 2.51 0 0 0 1.52.52h11a2.52 2.52 0 0 0 2.48-2.52v-5a2.52 2.52 0 0 0 -2.52-2.48zm-11.18-27.7a1 1 0 0 1 1.4 0l5.44 5.47 4.86 12.29-2.76 9.94h-6.65a25.75 25.75 0 0 1 -.59-5.16 8.85 8.85 0 0 1 .89-4 1 1 0 0 0 .11-.45v-9a1.08 1.08 0 0 1 1-1.18 1 1 0 0 1 .48.12 1.12 1.12 0 0 1 .52.95v8.72h2v-8.63a3.1 3.1 0 0 0 -1.49-2.66 3 3 0 0 0 -1-.38l-4.16-4.47a1.15 1.15 0 0 1 -.05-1.56zm-1.3 28.22a2.51 2.51 0 0 0 -1.52-.52 29.69 29.69 0 0 0 .52-5.16 10.93 10.93 0 0 0 -1-4.63v-8.73a3.21 3.21 0 0 0 -1.25-2.6l3.25-3.49 3.25 3.49a3.21 3.21 0 0 0 -1.25 2.6v8.73a10.93 10.93 0 0 0 -1 4.63 29.69 29.69 0 0 0 .54 5.16 2.51 2.51 0 0 0 -1.54.52zm-12.95-10.46 4.81-12.28 5.45-5.48a1 1 0 0 1 .69-.3.93.93 0 0 1 .68.3 1.16 1.16 0 0 1 0 1.57l-4.16 4.46a2.91 2.91 0 0 0 -1.05.39 3.08 3.08 0 0 0 -1.47 2.65v8.63h2v-8.63a1.1 1.1 0 0 1 .51-.94.92.92 0 0 1 .49-.13 1.08 1.08 0 0 1 1 1.18v9a1 1 0 0 0 .11.45 8.85 8.85 0 0 1 .89 4 25.75 25.75 0 0 1 -.59 5.07h-6.65zm11.43 17.94h-11a.52.52 0 0 1 -.52-.52v-5a.52.52 0 0 1 .52-.52h11a.52.52 0 0 1 .52.52v5a.52.52 0 0 1 -.52.52zm14.52-.52a.52.52 0 0 1 -.52.52h-11a.52.52 0 0 1 -.52-.52v-5a.52.52 0 0 1 .52-.52h11a.52.52 0 0 1 .52.52z"/><path d="m40 8a1 1 0 0 0 -.8-.67l-4.36-.63-1.93-4.12a1 1 0 0 0 -1.82 0l-1.93 4.12-4.31.66a1 1 0 0 0 -.57 1.69l3.15 3.22-.74 4.57a1 1 0 0 0 .41 1 1 1 0 0 0 1.06.06l3.84-2.15 3.84 2.13a1 1 0 0 0 .49.12 1 1 0 0 0 .57-.18 1 1 0 0 0 .41-1l-.74-4.57 3.15-3.22a1 1 0 0 0 .28-1.03zm-5.17 3.21a1 1 0 0 0 -.27.86l.5 3-2.53-1.4a1 1 0 0 0 -1 0l-2.53 1.46.5-3a1 1 0 0 0 -.27-.86l-2.16-2.27 2.93-.4a1 1 0 0 0 .74-.6l1.26-2.65 1.26 2.65a1 1 0 0 0 .74.6l2.93.4z"/><path d="m61.15 17.36-4.31-.66-1.93-4.12a1 1 0 0 0 -1.82 0l-1.93 4.12-4.31.66a1 1 0 0 0 -.57 1.69l3.15 3.22-.74 4.57a1 1 0 0 0 .41 1 1 1 0 0 0 1.06.06l3.84-2.15 3.84 2.13a1 1 0 0 0 .49.12 1 1 0 0 0 .57-.18 1 1 0 0 0 .41-1l-.74-4.57 3.15-3.22a1 1 0 0 0 -.57-1.69zm-4.37 3.88a1 1 0 0 0 -.27.86l.5 3-2.53-1.4a1 1 0 0 0 -1 0l-2.48 1.43.5-3a1 1 0 0 0 -.27-.86l-2.16-2.27 2.93-.4a1 1 0 0 0 .75-.57l1.25-2.68 1.26 2.65a1 1 0 0 0 .75.57l2.92.44z"/><path d="m14.57 22.27 3.15-3.22a1 1 0 0 0 -.57-1.69l-4.31-.66-1.93-4.12a1 1 0 0 0 -1.82 0l-1.93 4.12-4.31.66a1 1 0 0 0 -.57 1.69l3.15 3.22-.74 4.57a1 1 0 0 0 .41 1 1 1 0 0 0 1.06.06l3.84-2.15 3.84 2.13a1 1 0 0 0 .49.12 1 1 0 0 0 .57-.18 1 1 0 0 0 .41-1zm-1.79-1a1 1 0 0 0 -.27.86l.5 3-2.53-1.4a1 1 0 0 0 -1 0l-2.48 1.4.5-3a1 1 0 0 0 -.27-.86l-2.16-2.27 2.93-.4a1 1 0 0 0 .74-.6l1.26-2.65 1.26 2.65a1 1 0 0 0 .75.57l2.92.44z"/><path d="m9 29h2v3h-2z"/><path d="m11 32h3v2h-3z"/><path d="m6 32h3v2h-3z"/><path d="m9 34h2v3h-2z"/><path d="m53 29h2v3h-2z"/><path d="m55 32h3v2h-3z"/><path d="m50 32h3v2h-3z"/><path d="m53 34h2v3h-2z"/></svg>