<?xml version="1.0"?>
<svg xmlns="http://www.w3.org/2000/svg" id="Layer_1" data-name="Layer 1" viewBox="0 0 64 64" width="512" height="512"><path d="M61,42H59V27a1,1,0,0,0-1-1H52a1,1,0,0,0-1,1V42H49a.94.94,0,0,0-.61.23h0L38.63,50a36,36,0,0,1-6.63.76A36,36,0,0,1,25.37,50l-9.75-7.8h0A.94.94,0,0,0,15,42H13V27a1,1,0,0,0-1-1H6a1,1,0,0,0-1,1V42H3a1,1,0,0,0-1,1V61a1,1,0,0,0,1.64.77L9,57.3l5.36,4.47A1,1,0,0,0,15,62a1,1,0,0,0,.42-.09A1,1,0,0,0,16,61V57.6A48,48,0,0,0,32,60a48,48,0,0,0,16-2.4V61a1,1,0,0,0,1.64.77L55,57.3l5.36,4.47A1,1,0,0,0,61,62a1,1,0,0,0,.42-.09A1,1,0,0,0,62,61V43A1,1,0,0,0,61,42ZM53,28h4V42H53ZM48,45.08V47.5c-1.37.46-3,1-4.85,1.46ZM20.85,49C19,48.47,17.37,48,16,47.5V45.08ZM7,28h4V42H7Zm7,30.87L9.64,55.23a1,1,0,0,0-1.28,0L4,58.87V44H14v2.79a14.16,14.16,0,0,1-1.4-.59A1,1,0,0,0,11,47v7.22a1,1,0,0,0,.31.73A11.13,11.13,0,0,0,14,56.74Zm-1-5.1V48.52c3.74,1.48,12.72,4.26,19,4.26S47.26,50,51,48.52v5.25C48,56.28,40.28,58,32,58S16,56.28,13,53.77Zm47,5.1-4.36-3.64a1,1,0,0,0-1.28,0L50,58.87V56.74A11.13,11.13,0,0,0,52.69,55a1,1,0,0,0,.31-.73V47a1,1,0,0,0-1.6-.8,14.16,14.16,0,0,1-1.4.59V44H60Z"/><path d="M46.93,21.63l-5-12.78a1,1,0,0,0-.22-.34l-5.58-5.6A2.94,2.94,0,0,0,34,2h0a3,3,0,0,0-2,.79A3,3,0,0,0,30,2h0a2.93,2.93,0,0,0-2.12.9L22.29,8.51a1,1,0,0,0-.22.34l-5,12.78a1,1,0,0,0,0,.63L19.69,32h-.17A2.52,2.52,0,0,0,17,34.52v5A2.52,2.52,0,0,0,19.52,42h11A2.51,2.51,0,0,0,32,41.48a2.51,2.51,0,0,0,1.52.52h11A2.52,2.52,0,0,0,47,39.48v-5A2.52,2.52,0,0,0,44.48,32h-.17L47,22.26A1,1,0,0,0,46.93,21.63ZM34,13.48v8.73a10.93,10.93,0,0,0-1,4.63A29.69,29.69,0,0,0,33.54,32h0a2.51,2.51,0,0,0-1.52.52A2.51,2.51,0,0,0,30.48,32h0A29.69,29.69,0,0,0,31,26.84a10.93,10.93,0,0,0-1-4.63V13.48a3.21,3.21,0,0,0-1.25-2.6L32,7.39l3.25,3.49A3.21,3.21,0,0,0,34,13.48ZM19.05,22.06,23.86,9.78,29.31,4.3A1,1,0,0,1,30,4h0a.93.93,0,0,1,.68.3,1.16,1.16,0,0,1,0,1.57l-4.16,4.46a2.91,2.91,0,0,0-1.05.39A3.08,3.08,0,0,0,24,13.37V22h2V13.37a1.1,1.1,0,0,1,.51-.94A.92.92,0,0,1,27,12.3a1.08,1.08,0,0,1,1,1.18v9a1,1,0,0,0,.11.45A8.85,8.85,0,0,1,29,26.84,25.75,25.75,0,0,1,28.41,32H21.76ZM30.48,40h-11a.52.52,0,0,1-.52-.52v-5a.52.52,0,0,1,.52-.52h11a.52.52,0,0,1,.52.52v5A.52.52,0,0,1,30.48,40ZM45,34.52v5a.52.52,0,0,1-.52.52h-11a.52.52,0,0,1-.52-.52v-5a.52.52,0,0,1,.52-.52h11A.52.52,0,0,1,45,34.52ZM42.24,32H35.59A25.75,25.75,0,0,1,35,26.84a8.85,8.85,0,0,1,.89-3.95,1,1,0,0,0,.11-.45v-9a1.08,1.08,0,0,1,1-1.18,1,1,0,0,1,.48.12,1.12,1.12,0,0,1,.52.95V22h2V13.37a3.1,3.1,0,0,0-1.49-2.66,3,3,0,0,0-1-.38L33.31,5.86a1.15,1.15,0,0,1,0-1.56,1,1,0,0,1,1.4,0l5.44,5.47L45,22.06Z"/><path d="M9.92,14.61a1,1,0,0,0-1.84,0l-1.6,3.73s0,0,0,0a4.23,4.23,0,0,0-.47,2C6,22.39,7.32,24,9,24s3-1.61,3-3.67a4.23,4.23,0,0,0-.47-2s0,0,0,0ZM9,22c-.47,0-1-.71-1-1.67a2.25,2.25,0,0,1,.28-1.1,1.19,1.19,0,0,0,.08-.2L9,17.54,9.64,19a1,1,0,0,0,.08.21,2.25,2.25,0,0,1,.28,1.1C10,21.29,9.47,22,9,22Z"/><path d="M58,20.33a4.23,4.23,0,0,0-.47-2s0,0,0,0l-1.6-3.73a1,1,0,0,0-1.84,0l-1.6,3.73s0,0,0,0a4.23,4.23,0,0,0-.47,2C52,22.39,53.32,24,55,24S58,22.39,58,20.33Zm-4,0a2.25,2.25,0,0,1,.28-1.1,1.19,1.19,0,0,0,.08-.2L55,17.54,55.64,19a1,1,0,0,0,.08.21,2.25,2.25,0,0,1,.28,1.1c0,1-.53,1.67-1,1.67S54,21.29,54,20.33Z"/></svg>
