<?xml version="1.0"?>
<svg xmlns="http://www.w3.org/2000/svg" id="Layer_1" data-name="Layer 1" viewBox="0 0 64 64" width="512" height="512"><path d="M21.68,29.46a1,1,0,0,0-1.35-1.35A8,8,0,0,0,16,35.22a7.81,7.81,0,0,0,1.35,4.38,16,16,0,1,0,29.31,0A7.82,7.82,0,0,0,48,35.22a8,8,0,0,0-4.32-7.11,1,1,0,0,0-1.34,1.35A6.07,6.07,0,0,1,43,32.22a5.83,5.83,0,0,1-.32,1.9,15.9,15.9,0,0,0-21.36,0,6.11,6.11,0,0,1-.32-1.9A6,6,0,0,1,21.68,29.46ZM18,35.22a6,6,0,0,1,1-3.33c0,.11,0,.22,0,.33a8,8,0,0,0,.8,3.45,18.58,18.58,0,0,0-1.33,1.83A6.07,6.07,0,0,1,18,35.22Zm28,0a5.89,5.89,0,0,1-.47,2.28,15.8,15.8,0,0,0-1.33-1.83,7.87,7.87,0,0,0,.8-3.45v-.33A6,6,0,0,1,46,35.22ZM32,32A14,14,0,1,1,18,46,14,14,0,0,1,32,32Z"/><path d="M24,53H25.4l1.72,3.45A1,1,0,0,0,28,57a1,1,0,0,0,.9-.55L30.63,53H33.4l1.72,3.45A1,1,0,0,0,36,57a1,1,0,0,0,.9-.55L38.63,53H40V51H24Zm4,.76L27.63,53h.77Zm8,0L35.63,53h.77Z"/><path d="M7,15a1,1,0,0,0,.89-1.45l-2-4a1,1,0,0,0-1.79,0l-2,4A1,1,0,0,0,3,15H4v4a1,1,0,0,0,1,1h5v3.74A2,2,0,0,1,9,22H7A4,4,0,0,0,10,25.87V41H9a1,1,0,0,0-1,1v8a1,1,0,0,0,1,1h1v5H9a1,1,0,0,0-1,1v4a1,1,0,0,0,1,1h4a1,1,0,0,0,1-1V57a1,1,0,0,0-1-1H12V51h1a1,1,0,0,0,1-1V42a1,1,0,0,0-1-1H12V25.85A4,4,0,0,0,15,22H13a2,2,0,0,1-1,1.72V20h5a1,1,0,0,0,1-1V15h1a1,1,0,0,0,.89-1.45l-2-4A1,1,0,0,0,17,9a1,1,0,0,0-.9.55l-2,4A1,1,0,0,0,15,15h1v3H12V8h1a1,1,0,0,0,.89-1.45l-2-4a1,1,0,0,0-1.79,0l-2,4A1,1,0,0,0,9,8h1V18H6V15Zm5,45H10V58h2ZM10,43h2v6H10Zm7-30.77.38.77h-.77Zm-6-7,.38.77H10.6Zm-6,7,.39.77H4.62Z"/><path d="M49,15a1,1,0,0,0,.89-1.45l-2-4a1,1,0,0,0-1.79,0l-2,4A1,1,0,0,0,45,15h1v4a1,1,0,0,0,1,1h5v3.74A2,2,0,0,1,51,22H49A4,4,0,0,0,52,25.87V41H51a1,1,0,0,0-1,1v8a1,1,0,0,0,1,1h1v5H51a1,1,0,0,0-1,1v4a1,1,0,0,0,1,1h4a1,1,0,0,0,1-1V57a1,1,0,0,0-1-1H54V51h1a1,1,0,0,0,1-1V42a1,1,0,0,0-1-1H54V25.85A4,4,0,0,0,57,22H55a2,2,0,0,1-1,1.72V20h5a1,1,0,0,0,1-1V15h1a1,1,0,0,0,.89-1.45l-2-4A1,1,0,0,0,59,9a1,1,0,0,0-.9.55l-2,4A1,1,0,0,0,57,15h1v3H54V8h1a1,1,0,0,0,.89-1.45l-2-4a1,1,0,0,0-1.79,0l-2,4A1,1,0,0,0,51,8h1V18H48V15Zm5,45H52V58h2ZM52,43h2v6H52Zm7-30.77.38.77h-.77Zm-6-7,.38.77H52.6Zm-6,7,.39.77h-.77Z"/><path d="M23.27,40.16A3.38,3.38,0,0,0,23,41.5,3.5,3.5,0,0,0,29.66,43l.93.41.82-1.82-9-4-.82,1.82ZM26.5,43A1.5,1.5,0,0,1,25,41.5a1.61,1.61,0,0,1,.1-.53l2.73,1.22A1.5,1.5,0,0,1,26.5,43Z"/><path d="M34.34,43A3.5,3.5,0,0,0,41,41.5a3.38,3.38,0,0,0-.27-1.34l1.68-.75-.82-1.82-9,4,.82,1.82ZM39,41.5a1.5,1.5,0,0,1-2.83.69L38.9,41A1.61,1.61,0,0,1,39,41.5Z"/><path d="M24,13a5,5,0,0,0,4.18,4.93l1.66,7.48A4,4,0,0,0,27,29h2c0-1.08,1.37-2,3-2s3,.92,3,2h2a4,4,0,0,0-2.84-3.59l1.66-7.48a5,5,0,0,0,1.66-9.27c0-.21,0-.43,0-.66,0-4.14-2.76-6-5.5-6s-5.5,1.86-5.5,6q0,.35,0,.66A5,5,0,0,0,24,13Zm3-2.19a6,6,0,0,0,3.87,4l.52-1.94C30,12.55,28.89,11,28.59,9.09A6.16,6.16,0,0,1,28.5,8c0-2.5,1.31-4,3.5-4s3.5,1.5,3.5,4a6.16,6.16,0,0,1-.09,1.09,1,1,0,0,0,.64,1.11A3,3,0,0,1,35,16a1,1,0,0,0-1,.78L32.19,25,32,25l-.19,0L30,16.78A1,1,0,0,0,29,16a3,3,0,0,1-2-5.19Z"/></svg>
