<?xml version="1.0"?>
<svg xmlns="http://www.w3.org/2000/svg" id="Layer_1" data-name="Layer 1" viewBox="0 0 64 64" width="512" height="512"><path d="M32,38a2.24,2.24,0,0,1,2,2.14l2-.28A4.21,4.21,0,0,0,32,36a4.21,4.21,0,0,0-4,3.86l2,.28A2.26,2.26,0,0,1,32,38Z"/><path d="M46,28.5A12.52,12.52,0,0,0,33.5,16h-3A12.52,12.52,0,0,0,18,28.5v10a12.45,12.45,0,0,0,2.13,7L10.74,48a1,1,0,0,0-.66.58l-5,12a1,1,0,0,0,.09.93A1,1,0,0,0,6,62H58a1,1,0,0,0,.83-.45,1,1,0,0,0,.09-.93l-5-12a1,1,0,0,0-.66-.58l-9.39-2.56a12.5,12.5,0,0,0,2.13-7ZM20.57,25.12a21.37,21.37,0,0,0,4.66,1.31A9,9,0,0,1,20,28.93V28.5A10.51,10.51,0,0,1,20.57,25.12Zm11-1.12h.79a33.48,33.48,0,0,0,9.77-1.41,7.09,7.09,0,0,1,.44.71A27.13,27.13,0,0,1,33.25,25c-.83,0-1.68,0-2.49,0a27.15,27.15,0,0,1-9.37-1.68,7.09,7.09,0,0,1,.44-.71A33.5,33.5,0,0,0,31.61,24ZM44,28.5v.44a9,9,0,0,1-5.26-2.5,21.32,21.32,0,0,0,4.69-1.32A10.51,10.51,0,0,1,44,28.5ZM27.6,26.77c1,.1,2,.18,3.11.21L32,27l1.3,0c1.06,0,2.08-.11,3.06-.21A11,11,0,0,0,44,30.94a12,12,0,0,1-23.9,0A11,11,0,0,0,27.6,26.77ZM33.5,18a10.46,10.46,0,0,1,7.26,2.93A32.94,32.94,0,0,1,32.39,22h-.77a33,33,0,0,1-8.38-1.07A10.46,10.46,0,0,1,30.5,18ZM11.73,49.84l9.78-2.67a12.5,12.5,0,0,0,9,3.83h3a12.19,12.19,0,0,0,1.82-.15,15.22,15.22,0,0,1,1.76,1.83A13.33,13.33,0,0,1,40,60H7.5ZM50.3,49.3c-.79,3-4.1,7-8.39,10.14a15,15,0,0,0-2.1-6.29,10.82,10.82,0,0,0,3.92-5.64ZM38.68,51.5l0-.06c-.31-.4-.66-.78-1-1.15a12.57,12.57,0,0,0,3.69-2A8.74,8.74,0,0,1,38.68,51.5ZM56.5,60h-12c3.6-2.92,6.87-6.71,7.78-10.17h0Zm-23-11h-3A10.51,10.51,0,0,1,20,38.5V37.19a14,14,0,0,0,24,0v1.3A10.51,10.51,0,0,1,33.5,49Z"/><path d="M51,8c0-3.94-9.56-6-19-6S13,4.06,13,8s9.56,6,19,6S51,11.94,51,8ZM32,12C21,12,15,9.36,15,8s6-4,17-4S49,6.64,49,8,43,12,32,12Z"/><path d="M3,23H7V35a1,1,0,0,0,1,1h4a1,1,0,0,0,1-1V23h4a1,1,0,0,0,1-1V18a1,1,0,0,0-1-1H13V13a1,1,0,0,0-1-1H8a1,1,0,0,0-1,1v4H3a1,1,0,0,0-1,1v4A1,1,0,0,0,3,23Zm1-4H8a1,1,0,0,0,1-1V14h2v4a1,1,0,0,0,1,1h4v2H12a1,1,0,0,0-1,1V34H9V22a1,1,0,0,0-1-1H4Z"/><path d="M61,17H57V13a1,1,0,0,0-1-1H52a1,1,0,0,0-1,1v4H47a1,1,0,0,0-1,1v4a1,1,0,0,0,1,1h4V35a1,1,0,0,0,1,1h4a1,1,0,0,0,1-1V23h4a1,1,0,0,0,1-1V18A1,1,0,0,0,61,17Zm-1,4H56a1,1,0,0,0-1,1V34H53V22a1,1,0,0,0-1-1H48V19h4a1,1,0,0,0,1-1V14h2v4a1,1,0,0,0,1,1h4Z"/></svg>
