<?xml version="1.0"?>
<svg xmlns="http://www.w3.org/2000/svg" id="Layer_1" data-name="Layer 1" viewBox="0 0 64 64" width="512" height="512"><path d="M59,41a3,3,0,0,0-3,3v1H26.7L8,32.68A3,3,0,0,0,2,33V59a3,3,0,0,0,6,0V58H56v1a3,3,0,0,0,6,0V44A3,3,0,0,0,59,41ZM6,59a1,1,0,0,1-2,0V33a1,1,0,0,1,2,0Zm2-3V35.1L25.85,46.84a1.07,1.07,0,0,0,.55.16H56v9Zm52,3a1,1,0,0,1-2,0V44a1,1,0,0,1,2,0Z"/><path d="M14,25a4,4,0,1,0,4,4A4,4,0,0,0,14,25Zm0,6a2,2,0,1,1,2-2A2,2,0,0,1,14,31Z"/><path d="M19.4,37.51l8.12,5.32a1,1,0,0,0,.55.17h24a3,3,0,0,0,3-3,3,3,0,0,0-3-3H29.83l-7.22-4.55a3,3,0,0,0-4.16,1A3,3,0,0,0,19.4,37.51Zm.74-3a1,1,0,0,1,1.4-.35L29,38.84a1,1,0,0,0,.54.16H52.07a1,1,0,0,1,1,1,1.05,1.05,0,0,1-1,1H28.37l-7.89-5.17A1,1,0,0,1,20.14,34.49Z"/><path d="M59.25,2H4.75A2.75,2.75,0,0,0,2,4.75v16.5A2.75,2.75,0,0,0,4.75,24h23l3.56,3.69a1,1,0,0,0,1.44,0L36.27,24h23A2.75,2.75,0,0,0,62,21.25V4.75A2.75,2.75,0,0,0,59.25,2ZM38,13H35V11a1,1,0,0,0-1-1H30a1,1,0,0,0-1,1v2H26a1,1,0,0,0-1,1v4a1,1,0,0,0,.08.39l-.92-1c-1.74-1.93-1.49-5.58.51-7.8A4.78,4.78,0,0,1,28.17,8a4,4,0,0,1,1.59.32l.17.07a3.34,3.34,0,0,1,1.32.77,1,1,0,0,0,1.47,0A3.41,3.41,0,0,1,34,8.42l.26-.1a4.51,4.51,0,0,1,5.08,1.31c2,2.2,2.21,5.85.48,7.78l-.91.95A1,1,0,0,0,39,18V14A1,1,0,0,0,38,13Zm.38,5.92L35,22.43V19h3A1,1,0,0,0,38.38,18.92ZM26,19h3v3.46l-3.44-3.57A1.06,1.06,0,0,0,26,19Zm6,6.56-1-1V18a1,1,0,0,0-1-1H27V15h3a1,1,0,0,0,1-1V12h2v2a1,1,0,0,0,1,1h3v2H34a1,1,0,0,0-1,1v6.51Zm28-4.31a.74.74,0,0,1-.75.75H38.19l3.12-3.23c2.43-2.72,2.21-7.52-.47-10.48a6.48,6.48,0,0,0-7.33-1.82l-.24.1A7.76,7.76,0,0,0,32,7.18a7.16,7.16,0,0,0-1.31-.64l-.15-.07a6.48,6.48,0,0,0-7.34,1.82c-2.7,3-2.94,7.78-.5,10.5L25.78,22h-21A.74.74,0,0,1,4,21.25V4.75A.74.74,0,0,1,4.75,4h54.5a.74.74,0,0,1,.75.75Z"/><path d="M8.5,6A2.5,2.5,0,0,0,6,8.5v9a2.5,2.5,0,0,0,5,0v-9A2.5,2.5,0,0,0,8.5,6Zm0,2a.51.51,0,0,1,.5.5V12H8V8.5A.51.51,0,0,1,8.5,8Zm0,10a.51.51,0,0,1-.5-.5V14H9v3.5A.51.51,0,0,1,8.5,18Z"/><path d="M16,12a4,4,0,1,0,4,4A4,4,0,0,0,16,12Zm0,2a2,2,0,0,1,1.72,1H14.28A2,2,0,0,1,16,14Zm0,4a2,2,0,0,1-1.72-1h3.44A2,2,0,0,1,16,18Z"/><path d="M56,12H55a2,2,0,0,0-2,2v1H49V14a2,2,0,0,0-2-2H46a2,2,0,0,0-2,2v4a2,2,0,0,0,2,2h1a2,2,0,0,0,2-2V17h4v1a2,2,0,0,0,2,2h1a2,2,0,0,0,2-2V14A2,2,0,0,0,56,12Zm-9,6H46V14h1Zm9,0H55V14h1Z"/><rect x="50" y="6" width="2" height="4"/><rect x="54" y="8" width="4" height="2" transform="translate(10.04 42.23) rotate(-45)"/><rect x="44.59" y="7" width="2" height="4" transform="translate(6.99 34.87) rotate(-45)"/></svg>
