<svg id="Layer_1" height="512" viewBox="0 0 64 64" width="512" xmlns="http://www.w3.org/2000/svg" data-name="Layer 1"><path d="m19.48 46h-5a2.52 2.52 0 0 0 -2.48 2.52v11a2.52 2.52 0 0 0 2.52 2.48h5a2.52 2.52 0 0 0 2.48-2.52v-.17l9.74 2.69a.75.75 0 0 0 .26 0 .94.94 0 0 0 .37-.07l12.78-5a1 1 0 0 0 .34-.22l5.6-5.58a3 3 0 0 0 .91-2.13 3 3 0 0 0 -.92-2.14 3.16 3.16 0 0 0 -4.31 0l-3.65 3.4a3.21 3.21 0 0 0 -2.6-1.26h-8.73a10.93 10.93 0 0 0 -4.63-1 29.69 29.69 0 0 0 -5.16.54 2.52 2.52 0 0 0 -2.52-2.54zm0 14h-5a.52.52 0 0 1 -.52-.52v-11a.52.52 0 0 1 .52-.52h5a.52.52 0 0 1 .52.52v1.35 8.17 1.47a.52.52 0 0 1 -.52.53zm7.68-10a8.85 8.85 0 0 1 3.95.89 1 1 0 0 0 .45.11h9a1.08 1.08 0 0 1 1.18 1 1 1 0 0 1 -.12.48 1.12 1.12 0 0 1 -.95.52h-8.67v2h8.63a3.1 3.1 0 0 0 2.66-1.49 3 3 0 0 0 .38-1l4.47-4.16a1.15 1.15 0 0 1 1.56 0 1 1 0 0 1 .3.65 1 1 0 0 1 -.31.71l-5.47 5.44-12.28 4.85-9.94-2.76v-6.65a25.75 25.75 0 0 1 5.16-.59z"/><path d="m3 14h6v18a1 1 0 0 0 1 1h4a1 1 0 0 0 1-1v-18h6a1 1 0 0 0 1-1v-4a1 1 0 0 0 -1-1h-6v-5a1 1 0 0 0 -1-1h-4a1 1 0 0 0 -1 1v5h-6a1 1 0 0 0 -1 1v4a1 1 0 0 0 1 1zm1-4h6a1 1 0 0 0 1-1v-5h2v5a1 1 0 0 0 1 1h6v2h-6a1 1 0 0 0 -1 1v18h-2v-18a1 1 0 0 0 -1-1h-6z"/><path d="m61 8h-6v-5a1 1 0 0 0 -1-1h-4a1 1 0 0 0 -1 1v5h-6a1 1 0 0 0 -1 1v4a1 1 0 0 0 1 1h6v18a1 1 0 0 0 1 1h4a1 1 0 0 0 1-1v-18h6a1 1 0 0 0 1-1v-4a1 1 0 0 0 -1-1zm-1 4h-6a1 1 0 0 0 -1 1v18h-2v-18a1 1 0 0 0 -1-1h-6v-2h6a1 1 0 0 0 1-1v-5h2v5a1 1 0 0 0 1 1h6z"/><path d="m33.57 17.91a1.82 1.82 0 0 0 -3.15 0l-8.42 14.09a7 7 0 0 0 -.52 6.14c1.76 4.4 5.69 8.86 10.52 8.86s8.77-4.47 10.53-8.9a7 7 0 0 0 -.53-6.1zm7.1 19.45c-1.46 3.64-4.8 7.64-8.67 7.64s-7.2-4-8.67-7.62a5 5 0 0 1 .39-4.38l8.28-13.83 8.29 13.83a5 5 0 0 1 .38 4.36z"/><path d="m33 27h-2v3h-3v2h3v6h2v-6h3v-2h-3z"/></svg>