<svg id="icons" height="512" viewBox="0 0 64 64" width="512" xmlns="http://www.w3.org/2000/svg">
    <path fill="currentColor" d="m56.21191 20.42578a1 1 0 0 1 -.707-1.707 1.49984 1.49984 0 0 0 -2.12109-2.12109.99989.99989 0 0 1 -1.41406-1.41407 3.49963 3.49963 0 0 1 4.94924 4.94919.99676.99676 0 0 1 -.70709.29297z"/>
    <path fill="currentColor" d="m56.22754 13.33984a1 1 0 0 1 -.707-1.707 1.50053 1.50053 0 0 0 -2.12207-2.12207.99989.99989 0 0 1 -1.41406-1.41406 3.50032 3.50032 0 0 1 4.95019 4.9502.99675.99675 0 0 1 -.70706.29293z"/>
    <path fill="currentColor" d="m49.15625 6.26855a1 1 0 0 1 -.707-1.707 1.49946 1.49946 0 0 0 0-2.12109 1.53243 1.53243 0 0 0 -2.12109 0 .99989.99989 0 1 1 -1.41407-1.41406 3.5795 3.5795 0 0 1 4.94922 0 3.49873 3.49873 0 0 1 0 4.94922.99675.99675 0 0 1 -.70706.29293z"/>
    <path fill="currentColor" d="m54.81348 7.68262a1 1 0 0 1 -.707-1.707 1.50019 1.50019 0 1 0 -2.12207-2.1211.99989.99989 0 1 1 -1.41407-1.41406 3.5 3.5 0 1 1 4.9502 4.94922.99676.99676 0 0 1 -.70706.29294z"/>
    <path fill="currentColor" d="m34.97559 38.291a8.96484 8.96484 0 0 1 -2.27832-.294.99958.99958 0 0 1 .50781-1.93359 7.12909 7.12909 0 0 0 6.81836-1.86231.99989.99989 0 0 1 1.41406 1.41406 9.15762 9.15762 0 0 1 -6.46191 2.67584z"/>
    <path fill="currentColor" d="m40.73047 35.9082a1 1 0 0 1 -.707-1.707l15.48141-15.48245a.99989.99989 0 1 1 1.41412 1.41406l-15.4815 15.48242a.99672.99672 0 0 1 -.70703.29297z"/>
    <path fill="currentColor" d="m45.68066 23.88672a1 1 0 0 1 -.707-1.707l10.54685-10.54691a.99989.99989 0 1 1 1.41406 1.41407l-10.54687 10.54687a.9968.9968 0 0 1 -.70704.29297z"/>
    <path fill="currentColor" d="m42.14551 20.35059a1 1 0 0 1 -.707-1.707l12.668-12.668a.99989.99989 0 0 1 1.41406 1.41406l-12.668 12.668a.99676.99676 0 0 1 -.70706.29294z"/>
    <path fill="currentColor" d="m38.60938 16.81543a1 1 0 0 1 -.707-1.707l12.668-12.668a.99989.99989 0 0 1 1.41407 1.41406l-12.668 12.668a.9968.9968 0 0 1 -.70707.29294z"/>
    <path fill="currentColor" d="m31.53613 16.81738a1 1 0 0 1 -.707-1.707l14.085-14.084a.99989.99989 0 0 1 1.41407 1.41406l-14.085 14.084a.99672.99672 0 0 1 -.70707.29294z"/>
    <path fill="currentColor" d="m31.18262 11.51367a1 1 0 0 1 -.98926-.86035 1.49881 1.49881 0 0 0 -2.54492-.84766 1.51075 1.51075 0 0 0 -.39844.707.99955.99955 0 0 1 -1.94336-.46875 3.49976 3.49976 0 0 1 6.86719.33007 1.00005 1.00005 0 0 1 -.85059 1.12989.98292.98292 0 0 1 -.14062.0098z"/>
    <path fill="currentColor" d="m31.53516 16.81738a1.00024 1.00024 0 0 1 -.99707-.93457l-.33594-5.1582a1.00019 1.00019 0 1 1 1.99609-.13086l.33594 5.1582a1.00015 1.00015 0 0 1 -.93262 1.06348c-.02246.00098-.04492.00195-.0664.00195z"/>
    <path fill="currentColor" d="m24.46875 29.55762a1.00125 1.00125 0 0 1 -.97559-.78321 13.49814 13.49814 0 0 1 -.02343-5.459 1 1 0 1 1 1.96484.373 11.49885 11.49885 0 0 0 .01172 4.65234 1.00133 1.00133 0 0 1 -.75977 1.19336 1.03941 1.03941 0 0 1 -.21777.02351z"/>
    <path fill="currentColor" d="m24.45313 24.502a.95645.95645 0 0 1 -.13868-.00976.99977.99977 0 0 1 -.85254-1.12793l1.85254-13.31934a.99976.99976 0 1 1 1.98047.27539l-1.85254 13.31929a1.00023 1.00023 0 0 1 -.98925.86235z"/>
    <path fill="currentColor" d="m20.64648 33.38086a1 1 0 0 1 -.707-1.707l3.82325-3.82324a.99989.99989 0 0 1 1.41406 1.41406l-3.82324 3.82324a.9968.9968 0 0 1 -.70707.29294z"/>
    <path fill="currentColor" d="m29.124 41.85742a1 1 0 0 1 -.707-1.707l3.82715-3.82715a.99989.99989 0 0 1 1.41405 1.41403l-3.82715 3.82715a.99672.99672 0 0 1 -.70705.29297z"/>
    <path fill="currentColor" d="m25.73242 46.68262a1 1 0 0 1 -.707-1.707l3.40625-3.40723-8.49512-8.49512-3.40625 3.40723a.99989.99989 0 0 1 -1.41406-1.41406l4.11328-4.11426a1.02932 1.02932 0 0 1 1.41406 0l9.90918 9.90918a.99962.99962 0 0 1 0 1.41406l-4.11328 4.11426a.99676.99676 0 0 1 -.70706.29294z"/>
    <path fill="currentColor" d="m9.80957 64a1 1 0 0 1 -.707-1.707l15.9043-15.9043-9.89942-9.89941-10.89651 10.89548a.99989.99989 0 0 1 -1.41406-1.41407l11.60351-11.60254a.99964.99964 0 0 1 1.41406 0l11.31348 11.31348a.99964.99964 0 0 1 0 1.41406l-16.61133 16.6113a.99676.99676 0 0 1 -.70703.293z"/>
    <path fill="currentColor" d="m59.74805 23.96094a1 1 0 0 1 -.707-1.707 1.49947 1.49947 0 0 0 -.001-2.12012 1.50033 1.50033 0 0 0 -2.12109-.001.99989.99989 0 0 1 -1.41407-1.41406 3.50049 3.50049 0 0 1 5.97461 2.47461 3.46878 3.46878 0 0 1 -1.02442 2.47463.99676.99676 0 0 1 -.70703.29294z"/>
    <path fill="currentColor" d="m59.7627 16.875a1 1 0 0 1 -.707-1.707 1.49984 1.49984 0 0 0 -2.12109-2.12109.99989.99989 0 0 1 -1.41406-1.41407 3.49963 3.49963 0 1 1 4.94918 4.94916.9968.9968 0 0 1 -.70703.293z"/>
    <path fill="currentColor" d="m58.34863 11.21777a1 1 0 0 1 -.707-1.707 1.49984 1.49984 0 0 0 -2.12109-2.12109.99989.99989 0 1 1 -1.41406-1.41406 3.49962 3.49962 0 1 1 4.94921 4.94921.99672.99672 0 0 1 -.70706.29294z"/>
    <path fill="currentColor" d="m38.50977 41.82617a9.0046 9.0046 0 0 1 -2.27735-.292 1.00053 1.00053 0 1 1 .50781-1.93555 7.12313 7.12313 0 0 0 6.81836-1.8623.99989.99989 0 1 1 1.41407 1.41406 9.15825 9.15825 0 0 1 -6.46289 2.67579z"/>
    <path fill="currentColor" d="m44.26563 39.44336a1 1 0 0 1 -.707-1.707l15.48237-15.48245a.99989.99989 0 1 1 1.41408 1.41409l-15.48242 15.48239a.9968.9968 0 0 1 -.70703.29297z"/>
    <path fill="currentColor" d="m50.2168 26.42188a1 1 0 0 1 -.707-1.707l9.54586-9.54688a.99989.99989 0 0 1 1.41407 1.414l-9.5459 9.54688a.99676.99676 0 0 1 -.70703.293z"/>
    <path fill="currentColor" d="m45.68066 23.88672a1 1 0 0 1 -.707-1.707l12.66794-12.66898a.99989.99989 0 1 1 1.41406 1.41406l-12.668 12.669a.9968.9968 0 0 1 -.707.29292z"/>
    <path fill="currentColor" d="m42.14551 20.35059a1 1 0 0 1 -.707-1.707l12.668-12.668a.99989.99989 0 0 1 1.41406 1.41406l-12.668 12.668a.99676.99676 0 0 1 -.70706.29294z"/>
    <path fill="currentColor" d="m32.65918 45.39258a1 1 0 0 1 -.707-1.707l3.82715-3.82617a.99989.99989 0 0 1 1.41406 1.41406l-3.82715 3.82617a.99676.99676 0 0 1 -.70706.29294z"/>
    <path fill="currentColor" d="m29.26758 50.21777a1 1 0 0 1 -.707-1.707l3.40722-3.40625-2.83789-2.83886a.9999.9999 0 1 1 1.41409-1.4141l3.54492 3.5459a.99964.99964 0 0 1 0 1.41406l-4.11431 4.11328a.99672.99672 0 0 1 -.70703.29297z"/>
    <path fill="currentColor" d="m16.87988 64a1 1 0 0 1 -.707-1.707l12.36912-12.3682-4.2422-4.24316a.99989.99989 0 1 1 1.41407-1.41406l4.94922 4.95019a.99965.99965 0 0 1 0 1.41407l-13.07618 13.07516a.99676.99676 0 0 1 -.70703.293z"/>
    <path fill="currentColor" d="m45.50293 50a.99943.99943 0 0 1 -.98145-.81445l-3-15.86621a.99979.99979 0 0 1 1.96485-.3711l3 15.86621a.99978.99978 0 0 1 -.79688 1.168 1.01275 1.01275 0 0 1 -.18652.01755z"/>
    <path fill="currentColor" d="m46.50488 50a1.01275 1.01275 0 0 1 -.18652-.01758.99979.99979 0 0 1 -.79688-1.168l2.9834-15.77734a.99979.99979 0 0 1 1.96485.37109l-2.9834 15.77735a.99943.99943 0 0 1 -.98145.81448z"/>
    <path fill="currentColor" d="m47.50391 64h-3a.99942.99942 0 0 1 -1-1v-7h-2a.99942.99942 0 0 1 -1-1v-3a.99942.99942 0 0 1 1-1h2v-2a.99942.99942 0 0 1 1-1h3a.99943.99943 0 0 1 1 1v2h2a.99943.99943 0 0 1 1 1v3a.99943.99943 0 0 1 -1 1h-2v7a.99943.99943 0 0 1 -1 1zm-2-2h1v-7a.99942.99942 0 0 1 1-1h2v-1h-2a.99942.99942 0 0 1 -1-1v-2h-1v2a.99943.99943 0 0 1 -1 1h-2v1h2a.99943.99943 0 0 1 1 1z"/>
</svg>