<svg id="_x33_0" enable-background="new 0 0 64 64" height="512" viewBox="0 0 64 64" width="512"
     xmlns="http://www.w3.org/2000/svg">
    <g>
        <circle fill="currentColor" cx="22" cy="18" r="1"/>
        <circle fill="currentColor" cx="16" cy="18" r="1"/>
        <path fill="currentColor" d="m22.789 21.658.105-.211-1.789-.895-.105.212c-.381.762-1.147 1.236-2 1.236s-1.619-.474-2-1.236l-.105-.211-1.789.895.105.211c.722 1.444 2.174 2.341 3.789 2.341s3.067-.897 3.789-2.342z"/>
        <path fill="currentColor" d="m55 33.22v-2.503l-7.624-12.39c-.322-.522-.817-.897-1.376-1.116v-5.211h4v-2h-4v-2h-2v2h-4v2h4v5.211c-.559.219-1.054.594-1.376 1.116l-7.624 12.39v2.503l-2.181.545c-.727-.967-1.608-1.827-2.646-2.518-1.185-.789-2.492-1.331-3.885-1.609l-2.472-.494-.591-2.363c1.715-1.073 2.991-2.773 3.511-4.78h.264c2.206 0 4-1.794 4-4v-5c0-6.617-5.383-12-12-12s-12 5.382-12 11.999v5c0 2.206 1.794 4 4 4h.263c.52 2.007 1.796 3.708 3.511 4.78l-.591 2.363-2.472.494c-1.393.278-2.7.82-3.886 1.609-3.021 2.016-4.825 5.387-4.825 9.019v14.735c-1.103 0-2 .897-2 2v2c0 1.103.897 2 2 2h11.092c.396 0 .779.116 1.109.336l1.413.941c.71.473 1.535.723 2.386.723s1.676-.25 2.387-.723l1.411-.94c.331-.221.715-.337 1.11-.337h11.092c1.103 0 2-.897 2-2h26v-23.781zm-18-1.937 7.327-11.907c.285-.463 1.061-.463 1.346 0l7.327 11.907v1.717h-16zm10 25.717h-4v-10c0-1.103.897-2 2-2s2 .897 2 2zm-2-14c-2.206 0-4 1.794-4 4v10h-2v-22h12v22h-2v-10c0-2.206-1.794-4-4-4zm-8.879-8h.879v22c0-1.103-.897-2-2-2v-14.735c0-1.663-.394-3.263-1.094-4.711zm-20.121 8v-2h2v-2h2v2h2v2h-2v4h-2v-4zm3.382-6h-.764l-2.895-5.789 3.277.82 3.277-.82zm7.618-17v-4c1.103 0 2 .897 2 2s-.897 2-2 2zm-8-17c5.514 0 10 4.486 10 10v1.556c-.591-.344-1.268-.556-2-.556 0-2.206-1.794-4-4-4-3.03 0-4.78 1.036-6.473 2.037-1.283.76-2.613 1.543-4.639 1.963h-.888c-.732 0-1.409.212-2 .556v-1.556c0-5.514 4.486-10 10-10zm-10 15c0-1.103.897-2 2-2v4c-1.103 0-2-.897-2-2zm4 2v-4.204c1.965-.51 3.327-1.316 4.546-2.037 1.595-.945 2.971-1.759 5.454-1.759 1.103 0 2 .897 2 2v6c0 3.309-2.691 6-6 6s-6-2.691-6-6zm6 8c.828 0 1.628-.127 2.38-.362l.408 1.634-2.788.697-2.788-.696.408-1.634c.752.234 1.552.361 2.38.361zm-10.065 4.911c.968-.644 2.034-1.085 3.17-1.312l1.433-.286 3.112 6.223c-.397.365-.65.884-.65 1.464-1.103 0-2 .897-2 2v2c0 1.103.897 2 2 2v2c0 1.103.897 2 2 2h2c1.103 0 2-.897 2-2v-2c1.103 0 2-.897 2-2v-2c0-1.103-.897-2-2-2 0-.58-.253-1.099-.649-1.465l3.112-6.223 1.433.286c1.136.228 2.202.669 3.169 1.312 2.463 1.645 3.935 4.394 3.935 7.355v10.735h-4v-10h-2v10h-2.881c-1.584 0-3.118.465-4.438 1.344l-.681.454-.682-.454c-1.319-.879-2.853-1.344-4.437-1.344h-2.881v-10h-2v10h-4v-10.735c0-2.961 1.472-5.71 3.935-7.354zm-3.935 20.089h8.881c1.188 0 2.339.349 3.328 1.008l1.791 1.194 1.791-1.194c.989-.659 2.141-1.008 3.328-1.008h8.881v2h-9.173c-1.445 0-2.805.563-3.827 1.586-.535.533-1.466.534-2.001-.001-1.021-1.023-2.381-1.585-3.826-1.585h-9.173zm18.908 6c-.791 0-1.558.232-2.219.672l-1.411.941c-.762.506-1.796.506-2.556 0l-1.413-.942c-.66-.439-1.426-.671-2.217-.671h-11.092v-2h11.173c.911 0 1.769.355 2.413 1 1.289 1.289 3.538 1.29 4.829-.001.645-.645 1.501-.999 2.412-.999h11.173l.002 2zm37.092-2h-8v-22h.879l7.121 1.781z"/>
    </g>
</svg>